<svg id="الواجهة_الرئيسية" data-name="الواجهة الرئيسية" xmlns="http://www.w3.org/2000/svg" xmlns:xlink="http://www.w3.org/1999/xlink" viewBox="0 0 1440 2930.03"><defs><style>.cls-1,.cls-3{opacity:0.52;}.cls-1{fill:url(#linear-gradient);}.cls-2{fill:url(#linear-gradient-2);}.cls-3{fill:url(#linear-gradient-3);}.cls-4{fill:url(#linear-gradient-4);}.cls-5{fill:url(#linear-gradient-5);}.cls-6{fill:url(#linear-gradient-6);}.cls-7{fill:url(#linear-gradient-7);}.cls-8{fill:url(#linear-gradient-8);}</style><linearGradient id="linear-gradient" x1="250.71" y1="657.83" x2="1244.43" y2="657.83" gradientUnits="userSpaceOnUse"><stop offset="0" stop-color="#054f85"/><stop offset="1" stop-color="#61bf89"/></linearGradient><linearGradient id="linear-gradient-2" x1="195.57" y1="657.83" x2="1189.29" y2="657.83" xlink:href="#linear-gradient"/><linearGradient id="linear-gradient-3" x1="195.57" y1="1599.9" x2="1189.29" y2="1599.9" gradientUnits="userSpaceOnUse"><stop offset="0" stop-color="#61bf89"/><stop offset="1" stop-color="#054f85"/></linearGradient><linearGradient id="linear-gradient-4" x1="250.71" y1="1599.9" x2="1244.43" y2="1599.9" xlink:href="#linear-gradient-3"/><linearGradient id="linear-gradient-5" x1="657.94" y1="867.07" x2="731.34" y2="1004.56" gradientUnits="userSpaceOnUse"><stop offset="0" stop-color="#61bf89" stop-opacity="0.76"/><stop offset="1" stop-color="#054f85"/></linearGradient><linearGradient id="linear-gradient-6" x1="428.28" y1="1037.82" x2="775.96" y2="1037.82" gradientUnits="userSpaceOnUse"><stop offset="0" stop-color="#054f85"/><stop offset="1" stop-color="#61bf89" stop-opacity="0.76"/></linearGradient><linearGradient id="linear-gradient-7" x1="665.82" y1="1218.28" x2="730.92" y2="1359.91" xlink:href="#linear-gradient-6"/><linearGradient id="linear-gradient-8" x1="620.09" y1="1185.92" x2="962.44" y2="1185.92" xlink:href="#linear-gradient-5"/></defs><title>04</title><path class="cls-1" d="M1066.28,574a659,659,0,0,0-542.9-69.37h0A656.27,656.27,0,0,0,250.71,671.13c54-36.44,119.28-51.92,189.08-57.71,75.28-6.24,136.88,1.79,320.77,133.91,98.26,70.6,210.48,89.88,251.73,89.88,0,0,156.53,22,217.85-44.05C1304.21,713.41,1066.28,574,1066.28,574Z"/><path class="cls-2" d="M373.72,574a659,659,0,0,1,542.9-69.37h0a656.27,656.27,0,0,1,272.67,166.52c-54-36.44-119.28-51.92-189.08-57.71-75.28-6.24-136.88,1.79-320.77,133.91-98.26,70.6-210.48,89.88-251.73,89.88,0,0-156.53,22-217.85-44.05C135.79,713.41,373.72,574,373.72,574Z"/><path class="cls-3" d="M373.72,1683.75a658.92,658.92,0,0,0,542.9,69.38h0a656.29,656.29,0,0,0,272.67-166.53c-54,36.44-119.28,51.93-189.08,57.71-75.28,6.25-136.88-1.79-320.77-133.91-98.26-70.59-210.48-89.88-251.73-89.88,0,0-156.53-22-217.85,44C135.79,1544.33,373.72,1683.75,373.72,1683.75Z"/><path class="cls-4" d="M1066.28,1683.75a658.92,658.92,0,0,1-542.9,69.38h0A656.29,656.29,0,0,1,250.71,1586.6c54,36.44,119.28,51.93,189.08,57.71,75.28,6.25,136.88-1.79,320.77-133.91,98.26-70.59,210.48-89.88,251.73-89.88,0,0,156.53-22,217.85,44C1304.21,1544.33,1066.28,1683.75,1066.28,1683.75Z"/><path class="cls-5" d="M776,849.7v38c0-3.36-.07-6.71-.17-10a164.51,164.51,0,0,1-155.7,157V911a61.29,61.29,0,0,1,61.28-61.28Z"/><path class="cls-6" d="M776,887.66A310.23,310.23,0,0,1,465.58,1198a312.38,312.38,0,0,1-37.3-2.22v-92.35a68.61,68.61,0,0,1,68.61-68.61l123.2-.23a164.51,164.51,0,0,0,155.7-157C775.89,881,776,884.3,776,887.66Z"/><path class="cls-7" d="M776,1198.16v120.42a60,60,0,0,1-60,59.94H620.09V1337A164.56,164.56,0,0,1,776,1198.16Z"/><path class="cls-8" d="M962.44,1036.69v97.06A64.26,64.26,0,0,1,898.17,1198l-122.21.14A164.56,164.56,0,0,0,620.09,1337h0c0-35.39,6-70.62,18.79-103.63A307.59,307.59,0,0,1,655.17,1198a310.65,310.65,0,0,1,307.27-161.33Z"/></svg>