<svg xmlns="http://www.w3.org/2000/svg" xmlns:xlink="http://www.w3.org/1999/xlink" viewBox="0 0 334.61 334.61"><defs><style>.cls-1{fill:url(#linear-gradient);}</style><linearGradient id="linear-gradient" x1="163.18" y1="-40.39" x2="170.77" y2="341.98" gradientUnits="userSpaceOnUse"><stop offset="0" stop-color="#61bf89"/><stop offset="0.05" stop-color="#4ca588"/><stop offset="0.12" stop-color="#368a87"/><stop offset="0.2" stop-color="#247486"/><stop offset="0.29" stop-color="#166386"/><stop offset="0.4" stop-color="#0c5885"/><stop offset="0.56" stop-color="#075185"/><stop offset="1" stop-color="#054f85"/></linearGradient></defs><title>مستجدات طبية ودوائية</title><g id="Layer_2" data-name="Layer 2"><g id="واجهة_الخدمات" data-name="واجهة الخدمات"><path class="cls-1" d="M274.74,0H59.86A59.87,59.87,0,0,0,0,59.86V274.75a59.87,59.87,0,0,0,59.86,59.86H274.74a59.87,59.87,0,0,0,59.87-59.86V59.86A59.87,59.87,0,0,0,274.74,0ZM110.38,116.34c5-6,13.31-9.65,25.61-11h2.66c10.31,0,20.93,4.32,27.24,11.63a7.88,7.88,0,0,0,5.32,2.33,7.74,7.74,0,0,0,5-2.33c6.32-7.31,16.94-11.63,27.25-11.63h2.65c12.3,1.32,20.62,5,25.61,11,5,6.31,6.64,14.95,4.65,25.59-1.33,7-6.33,15-13.28,22.94h-9l-6-21.61a4.66,4.66,0,0,0-4.64-3.32,5.13,5.13,0,0,0-5,2.66l-8.66,19.27-5-35.57a4.64,4.64,0,0,0-4.65-4,5.13,5.13,0,0,0-5.31,3.32l-13,42.89L152,132a5.38,5.38,0,0,0-5-3.65,5.18,5.18,0,0,0-3.12,1.07A5.45,5.45,0,0,0,142,132l-8.31,32.91H119.36c-7.3-8-12.3-16-13.63-22.94C103.75,131.29,105.42,122.65,110.38,116.34Zm103.73,58.17c-8,8-16.62,15.62-24.28,22.26-5.31,4.66-15.61,16-18.62,16-2.65,0-12-10-17.61-15l-.66-.66c-7.65-7-16.61-14.63-24.59-22.6h9.31a5.4,5.4,0,0,0,5-3.66L147,152.9l9.64,35.23a5.41,5.41,0,0,0,5,3.66,5,5,0,0,0,3.1-1.08,5.37,5.37,0,0,0,1.87-2.58l11.32-37.9,4.65,30.59c0,2,2,3.65,4.33,4a5.15,5.15,0,0,0,5.31-3l10-22.27,3,11.3a5,5,0,0,0,5,3.66Zm75.12-61.17c-2.66,9.31-19.28,71.8-26.59,81.11a25.21,25.21,0,0,1-5.34,5c-19.61,15.3-46.51,26.93-60.16,47.87-12.3,5.65-20.93,4-26.59-3.33-5.63,7.31-14.29,9-26.59,3.33-13.28-20.94-40.54-32.57-60.17-47.87a17.72,17.72,0,0,1-5-5c-7.64-9.31-24.27-71.8-26.92-81.11-2-6.65.33-9,1.67-9.63,12.62-6.66,32.24,46.86,34.56,51.52v.66l-.67-.33c-5,0-8.64,1.33-10,4-2.34,4.31,0,10.63,6.29,18.28a144.58,144.58,0,0,0,23.94,20.93c-1-1-2-2-3-3-6.32-6.64-12.64-12.63-17-18.28-6.66-8-8.65-13-6.32-16.29,1.33-2.66,4-3,7.65-1.66,24.92,9.64,65.48,50.85,81.42,78.44,16-27.59,56.84-68.8,81.43-78.44,3.68-1.33,6.34-1,7.66,1.66,2.34,3.33.34,8.31-6.33,16.29-4.3,5.65-10.3,11.64-16.94,18.28-1,1-2,2-3,3,10.3-7.3,18.61-14.61,23.93-20.93,6.32-7.65,8.66-14,6.67-18.28-1.68-2.66-5.34-4-10.31-4l-.66.33.31-.66c2-4.66,21.94-58.18,34.24-51.52C289.23,104.37,291.22,106.69,289.23,113.34Z"/></g></g></svg>