<?xml version="1.0" encoding="UTF-8" standalone="no"?>
<svg
   xmlns:dc="http://purl.org/dc/elements/1.1/"
   xmlns:cc="http://creativecommons.org/ns#"
   xmlns:rdf="http://www.w3.org/1999/02/22-rdf-syntax-ns#"
   xmlns:svg="http://www.w3.org/2000/svg"
   xmlns="http://www.w3.org/2000/svg"
   xmlns:sodipodi="http://sodipodi.sourceforge.net/DTD/sodipodi-0.dtd"
   xmlns:inkscape="http://www.inkscape.org/namespaces/inkscape"
   sodipodi:docname="Military boy.svg"
   inkscape:version="1.0 (4035a4fb49, 2020-05-01)"
   id="svg2652"
   version="1.1"
   viewBox="0 0 64.434967 74.631973"
   height="74.631973mm"
   width="64.434967mm">
  <title
     id="title2698">Military boy</title>
  <defs
     id="defs2646" />
  <sodipodi:namedview
     inkscape:window-maximized="1"
     inkscape:window-y="-9"
     inkscape:window-x="-9"
     inkscape:window-height="1001"
     inkscape:window-width="1920"
     fit-margin-bottom="0"
     fit-margin-right="0"
     fit-margin-left="0"
     fit-margin-top="0"
     inkscape:snap-global="false"
     showgrid="false"
     inkscape:document-rotation="0"
     inkscape:current-layer="layer1"
     inkscape:document-units="mm"
     inkscape:cy="122.08955"
     inkscape:cx="283.5453"
     inkscape:zoom="1.4"
     inkscape:pageshadow="2"
     inkscape:pageopacity="0.0"
     borderopacity="1.0"
     bordercolor="#666666"
     pagecolor="#ffffff"
     id="base" />
  <metadata
     id="metadata2649">
    <rdf:RDF>
      <cc:Work
         rdf:about="">
        <dc:format>image/svg+xml</dc:format>
        <dc:type
           rdf:resource="http://purl.org/dc/dcmitype/StillImage" />
        <dc:title>Military boy</dc:title>
        <cc:license
           rdf:resource="http://creativecommons.org/publicdomain/zero/1.0/" />
      </cc:Work>
      <cc:License
         rdf:about="http://creativecommons.org/publicdomain/zero/1.0/">
        <cc:permits
           rdf:resource="http://creativecommons.org/ns#Reproduction" />
        <cc:permits
           rdf:resource="http://creativecommons.org/ns#Distribution" />
        <cc:permits
           rdf:resource="http://creativecommons.org/ns#DerivativeWorks" />
      </cc:License>
    </rdf:RDF>
  </metadata>
  <g
     transform="translate(82.067481,-78.884754)"
     id="layer1"
     inkscape:groupmode="layer"
     inkscape:label="Lager 1">
    <path
       transform="scale(0.26458333)"
       d="m -96.019531,298.14844 c -1.810366,0.0405 -4.569639,1.00118 -9.212889,2.42773 -10.49526,3.22446 -29.4562,6.60287 -36.42969,6.49024 -20.23623,-0.32686 -30.16872,0.26662 -32.26953,1.93164 -0.66667,0.52839 -2.98922,1.53557 -5.16211,2.23633 -11.481,3.70261 -20.93422,9.23135 -33.69141,19.70898 -4.20283,3.45185 -8.12711,6.27734 -8.72265,6.27734 -0.59554,0 -1.73912,1.26769 -2.54102,2.81836 -1.42707,2.75968 -5.79371,5.24875 -24.72461,14.0918 -11.81522,5.51914 -11.67518,6.93317 2.11719,21.2207 5.50469,5.70234 10.0107,10.83505 10.01172,11.40625 0.001,0.57124 -0.86465,2.73888 -1.92383,4.81641 -1.643,3.22212 -1.88737,5.56765 -1.66211,15.96094 0.34534,15.94446 2.44049,21.83329 10.56836,29.70117 8.26265,7.99839 9.03,9.99037 7.60156,19.73437 -0.92764,6.32788 -2.06869,6.595 -9.0957,2.13868 -3.95255,-2.50666 -5.24882,-2.89481 -6.68164,-2 -0.9778,0.61061 -2.43755,1.11132 -3.24414,1.11132 -2.86485,0 -6.56055,2.34737 -6.56055,4.16797 0,1.64867 -0.58653,1.77923 -5.42187,1.21094 -6.87886,-0.80848 -10.3716,0.0724 -11.67969,2.94336 -0.83535,1.83341 -2.41008,2.51484 -8.2168,3.55859 -10.92298,1.96343 -20.66269,5.05961 -25.94726,8.2461 -2.62077,1.58025 -5.20828,2.87304 -5.75,2.87304 -0.54176,0 -0.98438,0.45984 -0.98438,1.02344 0,0.56364 -1.23751,1.51718 -2.75,2.11914 -1.56805,0.62404 -2.20899,1.29567 -1.49023,1.5625 0.69331,0.2572 7.21639,-1.62407 14.49414,-4.18164 14.05735,-4.94011 25.32708,-7.52313 32.82812,-7.52344 3.81056,-1.1e-4 5.07705,0.5146 7.50196,3.0586 1.60414,1.68298 3.52448,3.59546 4.26757,4.25 6.75466,5.94965 25.39181,25.26331 26.56055,27.52343 0.81657,1.57905 2.5215,3.55053 3.78711,4.38282 2.45843,1.61669 12.14487,14.66497 15.80274,21.28515 1.21549,2.19999 2.56529,4.45001 2.99804,5 0.4328,0.55 2.12374,3.47502 3.75781,6.5 1.63412,3.02499 3.97756,7.30002 5.20704,9.5 3.32991,5.95843 5.51654,10.25667 9.0332,17.75 2.20887,4.70657 3.72102,6.75 4.99219,6.75 1.3844,0 1.69111,-0.5412 1.27929,-2.25 -1.313,-5.4483 -12.68124,-28.27088 -17.38672,-34.90429 -1.03559,-1.45992 -1.88281,-2.91337 -1.88281,-3.23047 0,-0.99043 -14.44864,-22.40224 -15.93554,-23.61524 -0.33714,-0.275 -2.45879,-2.85104 -4.7129,-5.72265 -7.84592,-9.99515 -21.24835,-24.10353 -34.35156,-36.16211 -4.31191,-3.96817 -5.06347,-5.06717 -3.47656,-5.08985 2.71684,-0.0359 16.65898,7.98803 19.83594,11.41602 1.39623,1.50656 3.0352,2.43195 3.64258,2.05664 0.60736,-0.37538 1.97825,0.32647 3.04687,1.55859 3.30584,3.81162 12.4663,18.21608 12.18359,19.15821 -0.14732,0.49066 0.34081,1.50092 1.08594,2.24609 1.40844,1.4084 4.43417,6.13884 11.53711,18.03906 10.38157,17.39331 14.97104,24.15453 17.53125,25.83203 2.61679,1.71459 3.61328,1.30071 3.61328,-1.5 0,-1.24369 -0.73639,-1.83203 -2.28906,-1.83203 -1.69947,0 -3.08937,-1.35172 -5.39844,-5.25 -1.71035,-2.88752 -6.5301,-11.01389 -10.71094,-18.05859 -4.18083,-7.04466 -7.60156,-13.19602 -7.60156,-13.66797 0,-0.47195 -0.35125,-1.0081 -0.78125,-1.19141 -1.38028,-0.58847 -9.28427,-13.10244 -8.66601,-13.7207 0.32787,-0.32783 1.0084,0.13969 1.51172,1.03906 0.50327,0.89938 2.41106,3.42626 4.23828,5.61329 1.82721,2.18694 4.86208,6.39643 6.74414,9.35546 1.88205,2.95903 4.2109,6.24713 5.17578,7.30664 0.96487,1.05937 2.03944,2.82549 2.38867,3.92579 0.34923,1.10041 1.74774,3.15893 3.10742,4.57421 l 2.47266,2.57422 -0.73438,-2.47656 c -0.60559,-2.04068 -4.95957,-9.21833 -8.20312,-13.52344 -0.41439,-0.54999 -2.4992,-3.69998 -4.63281,-7 -5.07379,-7.84743 -22.48644,-24.74448 -24.8711,-24.13476 -1.02153,0.2612 -1.75,-0.11268 -1.75,-0.89844 0,-0.74033 -2.99115,-4.30819 -6.64648,-7.92773 -3.6553,-3.61951 -6.4677,-6.71816 -6.25,-6.88672 0.21781,-0.16872 1.74649,-0.84008 3.39648,-1.49024 3.60934,-1.4222 7.42176,-0.49914 13.31446,3.22071 2.28045,1.43962 4.37133,2.61718 4.64648,2.61718 0.83762,0 10.87979,6.6423 13.44141,8.89063 1.32166,1.16001 2.72685,2.10937 3.12109,2.10937 1.23813,0 31.95168,29.96411 31.9668,31.1875 0.005,0.37856 1.38142,2.17854 3.05859,4 5.14458,5.58709 14.69346,19.98165 14.87109,22.41797 0.0443,0.60798 -1.38243,1.52337 -3.16992,2.03516 -3.84737,1.10162 -5.48998,4.03621 -6.7793,12.11133 -0.50464,3.16078 -1.20022,7.5456 -1.54492,9.74218 -0.34473,2.19659 -1.19415,5.12161 -1.88672,6.5 -2.17749,4.33372 -2.73749,8.00586 -1.22265,8.00586 0.80598,0 2.46874,-3.33809 4.11133,-8.25 1.51736,-4.53751 3.90258,-10.83662 5.30078,-13.99804 2.25607,-5.10119 2.98374,-5.86693 6.45898,-6.80274 2.15369,-0.57989 4.14496,-1.65305 4.42578,-2.38476 0.84057,-2.19039 -2.59499,-12.42768 -6.2832,-18.72071 -3.84382,-6.5585 -3.78326,-8.1492 0.53516,-13.77929 1.44865,-1.88867 3.32687,-4.71345 4.17382,-6.27735 l 1.54102,-2.84179 5.74609,4.46093 c 3.16014,2.4539 7.35613,4.99438 9.32618,5.64453 7.80733,2.57662 25.40088,-0.79412 29.41992,-5.63671 0.64531,-0.7776 1.68063,-1.4169 2.30078,-1.41993 0.62014,-0.003 2.62014,-1.40274 4.44531,-3.11328 2.905404,-2.72307 3.283916,-3.65517 3.048829,-7.48047 -0.2033,-3.30602 0.305201,-5.14346 2.087891,-7.55468 2.944706,-3.9831 2.988087,-9.62243 0.0918,-11.99219 -1.991471,-1.62943 -1.986795,-1.65166 0.544922,-2.28711 4.01091,-1.00664 10.197835,-8.38085 12.146484,-14.47852 1.509543,-4.72361 2.409074,-5.84791 7.080078,-8.83593 7.44121,-4.76009 9.181641,-6.73914 9.181641,-10.44141 0,-4.1026 -3.787326,-9.71543 -7,-10.375 -7.557014,-1.55138 -11.515307,-3.15942 -11.832031,-4.80469 -0.187654,-0.97432 0.858215,-3.58357 2.324218,-5.79883 4.159824,-6.28592 4.318795,-9.89387 0.6875,-15.55273 l -3.070312,-4.78516 0.90625,-8.99804 c 0.498822,-4.94869 1.197459,-9.99396 1.552734,-11.21289 0.697399,-2.39192 -1.188152,-11.64881 -2.972656,-14.58985 -0.86143,-1.41972 -0.738965,-2.00903 0.578125,-2.75781 2.399849,-1.36431 3.861753,-6.60172 4.107422,-14.72656 0.196989,-6.51442 -0.03727,-7.40896 -3.035156,-11.66211 -2.880492,-4.08664 -3.246348,-5.36394 -3.253907,-11.32617 -0.005,-4.4232 -0.997575,-10.13931 -2.902343,-16.72071 -2.069504,-7.15048 -2.449521,-9.63985 -5.466797,-9.57226 z m -1.351563,4.33203 c 0.204924,-0.002 0.354097,0.0319 0.429688,0.10742 0.302173,0.30219 -1.307276,4.34811 -3.576174,8.99219 -2.26885,4.64408 -4.125,9.06393 -4.125,9.82031 0,0.75639 -1.27919,3.83973 -2.8418,6.85156 -1.5626,3.01184 -3.39672,7.79264 -4.07617,10.625 -0.89314,3.7229 -1.79604,5.29548 -3.25781,5.67774 -1.84188,0.48166 -1.95939,0.20182 -1.33203,-3.15235 1.76239,-9.42266 7.07605,-22.18164 9.23828,-22.18164 1.02365,0 1.3307,-0.65522 0.96484,-2.05468 -0.94495,-3.61355 2.65143,-12.28903 5.71485,-13.78711 1.131042,-0.55308 2.246554,-0.89118 2.861326,-0.89844 z m -11.039066,3.24609 c 1.6545,-0.13333 1.55084,1.55034 -0.0664,6.08203 -1.29207,3.62058 -2.3319,4.99489 -3.95899,5.23047 -2.56924,0.37201 -2.60656,0.12012 -0.85547,-5.73633 0.85085,-2.84562 2.07954,-4.69694 3.45313,-5.20507 0.57215,-0.21166 1.04593,-0.34033 1.42773,-0.3711 z m -8.5,2.51758 c 1.2031,0.0868 1.07864,1.39602 0.0391,4.58008 -1.06247,3.25418 -1.76502,3.94386 -4.27149,4.18359 -1.6501,0.15782 -2.51372,-0.0672 -1.91992,-0.5 0.5938,-0.43281 1.04384,-2.11945 1,-3.74804 -0.0634,-2.35515 0.47867,-3.16193 2.65039,-3.9375 1.13428,-0.40508 1.95509,-0.61759 2.50195,-0.57813 z m -40.70703,1.97656 h 3.86133 l -3.53125,7.75 c -1.94139,4.2625 -3.60341,7.80953 -3.69336,7.88282 -0.0898,0.0732 -1.63568,0.44789 -3.4375,0.83398 l -3.27734,0.70312 1.41406,-3.83593 c 0.77764,-2.10934 2.17723,-5.97149 3.10937,-8.58399 1.62479,-4.55369 1.85385,-4.75 5.55469,-4.75 z m -7.82617,0.0137 c 1.55898,-0.0125 1.57727,0.29557 0.22461,3.73632 -0.81078,2.0625 -1.88234,4.48216 -2.38086,5.37696 -0.49848,0.89478 -1.22039,3.29735 -1.60351,5.33984 -0.59997,3.19804 -1.31421,3.97868 -5.1504,5.62305 -5.45616,2.33876 -5.68565,2.34709 -4.77539,0.16015 0.4006,-0.9625 1.50416,-3.80469 2.45313,-6.3164 4.71651,-12.48368 5.84179,-13.87665 11.23242,-13.91992 z m 17.27344,0.0332 c 2.21965,0.014 2.29699,2.05197 0.42383,6.98828 -1.14048,3.0055 -2.14518,5.5366 -2.23438,5.625 -0.089,0.0884 -1.81417,0.47038 -3.83398,0.84766 l -3.67383,0.68554 1.98437,-4.34765 c 3.81891,-8.36784 4.44383,-9.33539 6.25196,-9.6836 0.4051,-0.078 0.76494,-0.11724 1.08203,-0.11523 z m 51.082029,0.89062 c 0.594075,-0.0965 0.95996,1.20569 0.453125,3.3125 -2.266545,9.42155 -3.558994,13.93706 -5.939454,20.75 -2.09737,6.00275 -3.06588,7.5626 -4.8457,7.81836 -2.4243,0.34837 -2.70383,-0.50637 -1.31641,-4.02148 2.79417,-7.07922 5.47943,-13.71396 6.79883,-16.79688 2.13445,-4.9874 3.033059,-7.25118 3.671875,-9.25 0.381288,-1.19303 0.82129,-1.7546 1.177734,-1.8125 z m -42.916019,1.16797 c 1.62213,-0.0284 1.64731,1.00853 0.40821,4.26758 -0.95641,2.51556 -4.30743,5.0324 -5.33399,4.00586 -0.30232,-0.30236 0.0179,-2.19904 0.71289,-4.21484 0.85251,-2.47294 1.96609,-3.76876 3.41992,-3.98438 0.29786,-0.0442 0.56124,-0.0702 0.79297,-0.0742 z M -176.25,313.6719 c 0.99474,0.004 -0.0659,2.46653 -3.58984,11.78124 -2.34773,6.20576 -3.79259,8.73833 -4.99414,8.75 -0.93003,0.009 -1.96882,0.46758 -2.3086,1.01758 -0.33989,0.55 0.084,1 0.94141,1 0.85746,0 1.55859,0.2259 1.55859,0.50196 0,1.42281 -6.2218,18.18654 -7.43945,20.04492 -0.77874,1.18849 -1.72646,3.81367 -2.10547,5.83398 -0.37901,2.02031 -1.50602,4.11139 -2.50586,4.64649 -2.61339,1.3986 -2.94922,1.24299 -2.94922,-1.35352 0,-3.42459 8.13384,-26.12795 10.07617,-28.125 0.5082,-0.5225 0.92383,-1.59274 0.92383,-2.37891 0,-0.7861 1.42668,-5.37488 3.17188,-10.19726 2.79246,-7.71627 3.58805,-8.96593 6.6289,-10.41602 1.26246,-0.60202 2.13965,-1.10732 2.5918,-1.10546 z m 42.46094,0.57031 c 0.62929,0.007 1.14648,0.43471 1.14648,1.35547 0,1.58854 -2.41773,3.87332 -3.23437,3.05664 -0.30199,-0.30208 -0.32033,-1.42404 -0.041,-2.49219 0.32419,-1.23972 1.31982,-1.92842 2.12891,-1.91992 z m 4.50586,1.12109 c 0.12267,0.005 0.2538,0.0205 0.39062,0.0469 0.96253,0.18536 1.66121,0.78175 1.55274,1.32422 -0.34749,1.73839 -3.30274,1.72611 -3.30274,-0.0137 0,-0.9012 0.50064,-1.39067 1.35938,-1.35742 z m -58.01758,3.90625 c 1.28711,-0.12662 0.97025,1.37581 -0.71289,4.70117 -1.32235,2.6125 -2.98537,6.69235 -3.69531,9.06641 -0.8863,2.96369 -2.15917,4.76574 -4.0625,5.75 -4.2141,2.1792 -7.66457,1.55909 -5.17579,-0.92969 0.38261,-0.38258 0.78984,-1.24443 0.90625,-1.91601 0.7773,-4.49195 5.74846,-12.96318 8.64063,-14.72657 1.97919,-1.20672 3.32734,-1.86934 4.09961,-1.94531 z m 72.9414,0.27344 c 0.97402,0.0844 1.7168,1.05251 1.7168,2.65234 0,2.16949 -3.74409,11.24273 -4.95312,12.00391 -0.72322,0.45534 -1.9013,6.18493 -2.00977,9.77148 -0.0616,2.04106 -5.03868,1.54602 -5.02734,-0.5 0.0161,-2.78442 6.81746,-21.50691 8.38086,-23.07031 0.64108,-0.64108 1.30821,-0.90809 1.89257,-0.85742 z m -8.04687,0.8125 c 2.27951,-0.0797 2.31947,1.98985 0.12109,6.21094 -0.90353,1.73486 -2.06932,3.99964 -2.58984,5.0332 -0.52048,1.03356 -1.5054,4.63356 -2.18945,8 -1.0235,5.0369 -1.62878,6.17647 -3.41211,6.43945 -1.83409,0.27044 -2.16602,-0.16616 -2.16602,-2.84765 0,-1.74263 0.72063,-4.68851 1.60156,-6.54493 0.88094,-1.85642 2.56845,-6.19868 3.75,-9.65039 1.6924,-4.94392 2.62596,-6.34398 4.39844,-6.5957 0.17187,-0.0244 0.33436,-0.0396 0.48633,-0.0449 z m -8.52734,0.86523 c 2.76929,0 2.78115,0.16196 0.40039,6.48047 -1.04017,2.76063 -2.42858,6.81953 -3.08399,9.01953 -0.65544,2.20001 -1.85106,5.4625 -2.65625,7.25 -1.62614,3.60997 -5.36914,4.597 -5.36914,1.41602 0,-1.00834 0.31275,-2.14671 0.69531,-2.5293 0.38261,-0.38258 0.77964,-1.2701 0.88282,-1.97265 0.10314,-0.70255 1.68569,-5.41419 3.51562,-10.47071 2.87566,-7.94612 3.6362,-9.19336 5.61524,-9.19336 z m -6.66211,2 c 1.35632,0 1.2329,0.5041 -1.4043,5.78321 -1.29592,2.59422 -2.60193,6.31737 -2.9043,8.27343 -0.30221,1.95608 -1.24494,5.21857 -2.09375,7.25 -0.84877,2.03143 -2.24697,3.69336 -3.10742,3.69336 -1.40379,0 -1.39552,-0.38485 0.0859,-3.75 0.90799,-2.0625 2.49859,-6.225 3.5332,-9.25 2.59627,-7.59069 4.76062,-12 5.89063,-12 z m -6.14453,1.06641 c 1.04604,0.0182 1.08955,0.43776 0.59375,1.60351 -0.428,1.00635 -1.33974,3.85509 -2.02735,6.33008 -1.86304,6.70561 -6.56574,18 -7.49414,18 -0.44651,0 -1.43411,0.23913 -2.19531,0.53125 -3.35195,1.28625 -2.85105,-1.02813 4.01367,-18.53125 2.58123,-6.58139 3.28021,-7.54075 5.71094,-7.83008 0.58828,-0.07 1.04975,-0.10957 1.39844,-0.10351 z m -10.90235,1.93359 c 2.80993,0 2.56716,2.53157 -1.12109,11.72266 -1.71621,4.27682 -3.53751,9.23877 -4.04688,11.02539 -0.57615,2.02072 -2.02377,3.8159 -3.83007,4.75 -2.78249,1.43886 -5.00196,1.93379 -5.00196,1.11523 0,-0.92511 5.28463,-16.40715 6.57617,-19.26562 0.78308,-1.73312 1.42383,-3.64562 1.42383,-4.25 0,-1.81812 3.86056,-5.09766 6,-5.09766 z m -9.04883,2.20508 c 0.37377,6.7e-4 0.68438,0.0965 0.89649,0.3086 0.23966,0.2396 -1.01269,4.38488 -2.7832,9.21093 -1.7706,4.82604 -3.63006,9.90039 -4.13282,11.27539 -0.50275,1.375 -1.07047,3.59294 -1.26172,4.92969 -0.19128,1.33675 -1.20871,2.76759 -2.25976,3.17969 -2.66204,1.04364 -5.41016,1.05663 -5.41016,0.0254 0,-1.21491 7.80187,-21.85161 9.50977,-25.1543 1.02514,-1.98241 3.82175,-3.77827 5.4414,-3.77539 z m -43.24804,0.32227 c 0.0935,-0.01 0.1643,0.006 0.21093,0.0527 0.26805,0.26806 -1.40235,2.37892 -3.71289,4.68945 -2.31053,2.31054 -4.20117,3.62152 -4.20117,2.91407 0,-1.37134 6.30082,-7.50907 7.70313,-7.65625 z m 5.19922,0.99414 c 1.36079,-0.14345 0.56757,3.3396 -2.11915,9.14843 -1.82887,3.95417 -4.2324,6.07946 -5.1289,4.53516 -0.66467,-1.14487 5.39365,-13.00929 6.94726,-13.60547 0.10995,-0.0422 0.21007,-0.0686 0.30079,-0.0781 z m 29.41601,1.82617 c 0.22655,-0.007 0.38364,0.0204 0.45117,0.0879 0.71467,0.71467 -9.69519,25.86643 -11.61523,28.06445 -0.96087,1.1 -2.73259,2.5625 -3.9375,3.25 -2.79708,1.59598 -3.2168,1.57009 -3.2168,-0.1914 0,-1.76618 4.9194,-15.66918 6.04102,-17.07227 0.44549,-0.55731 1.34427,-3.13214 1.99609,-5.7207 0.65178,-2.58855 1.69784,-5.10497 2.32422,-5.5918 1.38848,-1.07912 6.3712,-2.77952 7.95703,-2.82617 z m 73.138673,3.89648 c 0.06584,-0.0127 0.12528,0.004 0.175781,0.0547 0.284221,0.28404 0.206834,2.58396 -0.171875,5.10938 -0.669996,4.46792 -2.011019,5.92737 -3.023439,3.28906 -0.52505,-1.36824 2.03187,-8.26262 3.019533,-8.45313 z m 10.792969,0.86524 c 0.377847,0.0961 0.760548,0.80254 1.11914,2.14062 1.032643,3.8533 0.689704,9.2178 -0.720703,11.27735 -0.742941,1.08488 -1.652161,3.21015 -2.019531,4.72265 -0.693127,2.85244 -3.312529,3.74153 -4.201172,1.42578 -0.279571,-0.7285 0.37654,-3.3875 1.457032,-5.9082 1.080487,-2.52071 2.273597,-6.64999 2.652343,-9.17578 0.466441,-3.11047 1.083146,-4.64258 1.712891,-4.48242 z m -122.076172,2.89062 c 0.46855,0 -0.35647,1.9125 -1.83203,4.25 -1.4756,2.3375 -2.66734,4.475 -2.64844,4.75 0.0425,0.60747 -1.2604,3.98511 -3.875,10.03711 -1.07796,2.49523 -1.8567,4.97023 -1.73047,5.5 0.24699,1.03514 -0.40656,3.05542 -2.66211,8.2461 -0.78485,1.80616 -1.45439,4.05616 -1.49218,5 -0.0364,0.94383 -0.87292,4.19181 -1.85938,7.21679 -1.1435,3.50665 -2.42715,5.62454 -3.54102,5.84375 -1.55844,0.30675 -1.6672,-0.23288 -1.01171,-5 0.65926,-4.79444 7.32573,-25.75864 10.95117,-34.43554 1.45349,-3.4787 8.19711,-11.40821 9.70117,-11.40821 z m 15.09375,1.23633 c 0.20183,0.007 0.33384,0.0311 0.37891,0.0762 0.57671,0.57672 -3.77087,12.13088 -5.15039,13.6875 -2.04719,2.30999 -4.27487,14.23912 -2.75391,14.7461 0.66705,0.22235 -0.74701,1.89946 -3.14063,3.72656 -6.23108,4.75628 -8.60156,5.9312 -8.60156,4.26172 0,-0.73435 0.42145,-1.76266 0.9375,-2.28516 0.51606,-0.5225 2.07277,-4.77422 3.45899,-9.44922 6.45169,-21.75818 7.28188,-23.48567 11.71875,-24.37304 1.32131,-0.26425 2.54686,-0.41051 3.15234,-0.39063 z m -12.74609,4.76367 c 1.13121,0 1.21994,0.54864 0.42382,2.64258 -0.5529,1.45424 -1.3191,3.14174 -1.70117,3.75 -0.38203,0.60825 -0.84649,2.22073 -1.0332,3.58203 -0.18682,1.36129 -0.78332,3.01001 -1.32617,3.66407 -0.54282,0.65401 -1.10153,2.69073 -1.24024,4.52539 -0.13871,1.83465 -1.24113,5.22933 -2.44922,7.54492 -1.20808,2.31559 -2.19531,5.50933 -2.19531,7.0957 0,1.58638 -1.02626,4.0785 -2.28125,5.53906 h -0.002 c -4.82846,5.61929 -4.86225,2.9748 -0.13867,-10.57812 1.968,-5.6467 4.16489,-12.06563 4.88281,-14.26563 2.39592,-7.34213 5.61665,-13.5 7.06055,-13.5 z m -16.47266,1.50391 c 0.47445,-0.0281 0.57161,0.32049 0.29297,1.04687 -0.30584,0.797 -0.95807,1.44922 -1.44922,1.44922 -1.43762,0 -1.02509,-1.73484 0.55664,-2.34179 0.24215,-0.0929 0.44146,-0.14493 0.59961,-0.1543 z m 106.92969,2.57227 c 1.57851,-0.008 3.14784,0.45519 4.94922,1.38671 3.4577,1.78811 4.30486,3.77733 3.48046,8.17188 -0.71481,3.81052 -0.0966,4.05289 4.48438,1.76758 1.87121,-0.93348 4.22484,-1.33827 5.666016,-0.97657 3.225524,0.80956 8.087418,8.61483 9.388672,15.07422 1.232802,6.11939 1.773378,22.57622 0.792968,24.13282 -0.392541,0.62324 0.865171,4.16296 2.794922,7.86523 l 3.507813,6.73047 -2.509766,2.50976 c -1.38051,1.38048 -3.288512,4.98088 -4.240234,8 l -1.730469,5.48829 2.330078,1.88671 c 2.086035,1.68934 5.337367,2.41369 8.832031,1.9668 2.445166,-0.31268 7.261015,3.0146 7.869141,5.4375 1.047609,4.17407 -0.297742,7.18324 -3.75,8.38672 -1.742514,0.60737 -3.35734,0.9161 -3.587891,0.68555 -0.566627,-0.56663 -7.222334,3.8258 -9.984375,6.58984 -2.686488,2.68849 -0.860934,4.66369 1.955078,2.11523 2.289638,-2.07204 2.237576,-1.15883 -0.226562,3.94141 -1.100032,2.27671 -2,4.68068 -2,5.3418 0,1.51744 -8.186019,5.42187 -11.367192,5.42187 -4.44941,0 -15.0547,-4.62125 -16.54296,-7.20898 -1.31985,-2.29489 -1.14371,-2.80569 2.75,-7.96289 2.28812,-3.03058 4.14402,-6.3699 4.1289,-7.41992 -0.0291,-1.82714 -0.0774,-1.82212 -1.14648,0.0918 -1.7568,3.14499 -7.87436,8.47385 -10.47657,9.12696 -1.30068,0.32647 -2.61371,0.99768 -2.91796,1.49023 -0.30444,0.49259 -3.73431,2.97062 -7.6211,5.50781 -8.65047,5.64688 -11.80664,8.33105 -11.80664,10.04102 0,1.21481 3.78609,-0.0643 11.23633,-3.79688 2.83302,-1.4194 3.65975,-1.03919 5.19141,2.38086 3.33588,7.44877 12.00998,12.61565 18.22851,10.85938 1.5634,-0.44345 3.3219,-0.63738 3.90625,-0.43555 0.58439,0.20179 2.38441,-0.97879 4,-2.625 3.628319,-3.69694 4.073473,-3.73104 4.718752,-0.35547 0.401953,2.10274 -0.168921,3.33327 -2.605469,5.60938 -3.829113,3.5769 -6.630033,4.69726 -11.742183,4.69726 -3.26824,0 -3.9336,0.33886 -3.9336,2 0,1.7647 1.53395,2.53535 4.22656,2.125 1.26717,-0.19313 7.02913,3.36878 7.10547,4.39258 0.0403,0.53979 -2.81667,2.8949 -6.34765,5.23242 -6.22564,4.1212 -6.66386,4.24937 -14.45313,4.23047 -6.91306,-0.0159 -9.01174,-0.46879 -15.0625,-3.25 -8.31636,-3.82257 -16.12937,-9.3605 -19.52539,-13.83984 -1.34351,-1.77207 -3.26285,-4.16024 -4.26367,-5.30664 -1.81255,-2.07621 -1.81762,-2.07354 -1.19336,0.8164 0.56447,2.61317 6.90358,11.60491 8.76367,12.43164 1.54643,0.68731 0.6727,5.92724 -1.2832,7.69727 -1.11776,1.01155 -2.95299,3.3306 -4.08008,5.1543 h -0.002 c -3.20659,5.18838 -3.68043,4.97849 -12.80274,-5.6836 -8.69707,-10.16507 -21.54168,-22.47337 -35.08203,-33.61523 -7.77324,-6.39632 -8.41917,-7.17562 -7.17578,-8.67383 0.64467,-0.77681 1.44683,-3.42166 1.7832,-5.87695 0.49584,-3.61762 0.11747,-5.44041 -1.99804,-9.61524 -3.00832,-5.9382 -3.02418,-6.01315 -1.35938,-5.95117 3.19223,0.11857 5.74534,-0.33515 5.72266,-1.01758 -0.0142,-0.41249 -1.76755,-1.55256 -3.89649,-2.5332 -5.6011,-2.57994 -8.7047,-6.11454 -12.875,-14.6582 -3.21222,-6.58092 -3.68289,-8.4649 -3.63867,-14.5586 0.0281,-3.85001 0.58455,-7.9768 1.23633,-9.16992 0.91514,-1.6738 0.91399,-2.26068 -0.004,-2.5664 -3.43578,-1.14528 6.60973,-11.76368 11.12891,-11.76368 0.64014,0 2.37652,-1.12497 3.85937,-2.5 4.73315,-4.38886 4.81352,-2.67952 0.10547,2.25 -8.08452,8.46482 -10.19093,13.93384 -7.46679,19.39453 0.86766,1.73927 1.57812,4.33439 1.57812,5.76758 0,3.29031 3.45653,5.78417 5.57813,4.02344 1.85132,-1.53668 1.81451,-2.93555 -0.0781,-2.93555 -0.82499,0 -1.5,-0.61334 -1.5,-1.36328 0,-3.49856 2.14246,-12.02834 3.97266,-15.8164 2.42309,-5.01514 2.40165,-4.82032 0.52734,-4.82032 -0.82499,0 -1.5,0.43639 -1.5,0.97071 0,2.2555 -5.03519,12.12472 -5.91015,11.58398 -1.09093,-0.67423 1.34867,-8.67296 3.82226,-12.53125 2.20494,-3.43926 7.06025,-7.71368 10.33789,-9.10156 1.51249,-0.64044 2.75,-1.55972 2.75,-2.04297 0,-1.20643 -2.73808,-1.11175 -3.5,0.12109 -0.33993,0.55 -1.37856,0.99597 -2.30859,0.99219 -1.9256,-0.008 1.52556,-2.57468 8.80859,-6.55273 2.47499,-1.35188 5.17501,-2.87223 6,-3.37891 0.825,-0.50669 6.35144,-3.26882 12.28125,-6.13867 10.2728,-4.97171 10.84647,-5.12998 12.14258,-3.35742 1.04409,1.42788 1.67631,1.59724 2.7207,0.73046 1.8923,-1.57042 12.00589,-5.4785 12.61133,-4.87304 0.27281,0.27281 -1.12111,1.45099 -3.09766,2.61719 -3.94718,2.32891 -7.6582,7.53912 -7.6582,10.75195 0,1.13027 1.36075,3.41546 3.02344,5.07812 2.35468,2.35469 4.06821,3.09342 7.75,3.33985 l 4.72656,0.3164 -4.48047,1.33789 c -4.07814,1.21803 -11.40389,1.08635 -12.71875,-0.22851 -0.29333,-0.29333 -0.81912,-1.92961 -1.16797,-3.63477 -0.71297,-3.48608 -2.4235,-4.45244 -2.95898,-1.67187 -0.80568,4.18362 0.83607,6.67214 6.06641,9.19531 6.86963,3.31389 11.40235,3.39052 17.40625,0.29297 6.8945,-3.55703 14.38263,-14.81641 9.85351,-14.81641 -0.82503,0 -1.5,0.61562 -1.5,1.36914 0,1.80945 -8.21504,4.12927 -14.33398,4.04688 -5.38228,-0.0725 -6.62772,-1.20015 -6.65039,-6.01367 -0.019,-3.83949 5.78743,-10.21413 10.08789,-11.07422 1.86346,-0.37269 2.82872,-1.12941 2.66015,-2.08594 -0.19339,-1.09771 2.02109,-2.13162 8.23633,-3.84961 4.67501,-1.29224 10.24708,-2.61521 12.38281,-2.93945 3.26555,-0.49574 3.78721,-0.33842 3.27735,0.99023 -0.548,1.42804 -0.3259,1.43474 2.3164,0.0684 1.83585,-0.94936 3.42345,-1.42785 5.00196,-1.43554 z m -23.59375,0.30664 c 0.38931,0.0296 0.59817,0.14183 0.59179,0.34765 -0.0131,0.42298 -6.13103,2.79453 -13.59375,5.26953 -17.007,5.64036 -17.14755,5.67141 -9.88281,2.16407 8.5854,-4.14496 20.15959,-7.98836 22.88477,-7.78125 z m -90.98047,0.12695 c 0.47695,-0.0132 0.89306,0.16204 1.15625,0.58789 0.37534,0.6073 -0.37433,4.20972 -1.66602,8.00391 -1.29173,3.79418 -2.68005,6.89843 -3.08593,6.89843 -0.40589,0 -1.21864,-0.89715 -1.80469,-1.99218 -0.80028,-1.49537 -0.68459,-2.72651 0.46484,-4.94922 0.8417,-1.62766 1.53125,-3.86664 1.53125,-4.97461 0,-1.79446 1.97346,-3.5347 3.4043,-3.57422 z m 126.0957,1.45898 3,0.6543 c 3.905131,0.85069 4.656057,1.31427 3.957033,2.44531 -0.867363,1.40339 -1.992633,1.13813 -4.595703,-1.08398 z m -134.38476,3.19141 c 0.6637,-0.0642 0.72541,0.64884 0.27343,2.49219 -0.38411,1.56633 -0.99944,2.97017 -1.36718,3.12109 -0.36775,0.15092 -0.48427,1.52628 -0.25977,3.05664 0.2533,1.72573 -0.19022,3.27805 -1.16602,4.08789 -2.4218,2.00996 -3.27979,-1.45936 -1.31054,-5.29883 0.87995,-1.71569 1.73926,-3.98269 1.9082,-5.03711 0.16895,-1.05442 0.88811,-2.11075 1.59961,-2.34765 0.11963,-0.0398 0.22745,-0.065 0.32227,-0.0742 z m 14.89062,0.93359 c 0.5864,-0.0624 0.5429,0.87649 -0.48047,2.85547 -0.83913,1.62269 -1.52539,3.56587 -1.52539,4.31836 0,0.75249 -0.69279,3.70095 -1.53906,6.55078 -1.7506,5.89485 -3.00046,6.55927 -3.97656,2.11524 -0.76721,-3.49321 0.69803,-7.88756 4.22656,-12.6836 1.4927,-2.02893 2.70852,-3.09383 3.29492,-3.15625 z m -21.38281,2.89649 c 0.75279,0.0816 0.79363,1.09347 0.0703,3.00976 -1.28273,3.3983 -1.91108,3.64685 -3.71875,1.46875 -1.05078,-1.26612 -0.94272,-1.78061 0.62695,-2.96875 1.41985,-1.07475 2.43599,-1.57326 3.02149,-1.50976 z m 7.42969,8.24414 c 0.0952,-0.001 0.19445,0.0147 0.29687,0.0488 1.28304,0.42768 2.50996,4.6599 1.875,6.46679 -0.6181,1.759 -1.55384,1.55581 -2.92187,-0.63476 -1.26493,-2.02549 -0.67842,-5.85967 0.75,-5.88086 z m 130.67968,15.2539 c -3.232,0.0971 -6.52601,2.05468 -10.98242,6.32422 -5.35789,5.13328 -4.59413,7.3486 1.12891,3.27344 3.17541,-2.26106 9.13472,-3.55067 12.5039,-2.70508 1.41555,0.35528 3.71329,2.65152 5.61133,5.60938 5.659475,8.81949 7.165829,4.69399 1.830081,-5.01172 -2.544451,-4.62837 -3.900691,-6.01436 -6.839841,-6.98438 -1.10449,-0.3645 -2.17462,-0.53824 -3.25196,-0.50586 z m -58.43945,5.51172 c -2.65916,0 -0.71477,2.3926 2.6543,3.26563 1.82181,0.47206 4.36784,1.54838 5.65625,2.39258 2.54695,1.66896 4.10752,7.20814 2.84179,10.08398 -0.42542,0.96661 -0.81175,1.99287 -0.85937,2.28125 -0.20961,1.27279 -4.37462,5.85386 -4.87109,5.35742 -0.30312,-0.30312 -0.10005,-1.8507 0.45312,-3.4375 0.69876,-2.00477 0.65986,-3.93611 -0.13086,-6.33203 -1.28629,-3.89749 -5.65763,-7.39123 -7.25195,-5.79687 -0.66728,0.66727 -0.3279,1.36004 1.01758,2.08007 2.90721,1.55592 3.85695,8.16668 1.65625,11.52539 -2.28189,3.48254 -4.71741,3.2448 -9.31641,-0.91015 -2.12406,-1.91894 -5.38098,-4.12728 -7.23828,-4.9082 -4.04111,-1.69917 -5.72455,-1.01181 -11.1543,4.55468 -2.06188,2.11382 -4.19167,3.84375 -4.73437,3.84375 -0.54271,0 -2.37269,2.74437 -4.06641,6.09961 -2.82882,5.60088 -3.05924,6.80876 -2.82226,14.75 0.2765,9.26276 1.98431,15.08744 5.54882,18.9336 1.22075,1.3172 2.72486,4.83519 3.34375,7.8164 1.03378,4.97964 4.05513,9.94704 7.97461,13.11719 2.77607,2.24538 6.40503,1.45329 9.79492,-2.14062 4.22219,-4.47633 5.21743,-8.96736 2.32813,-10.51368 -1.15313,-0.61712 -2.048,-1.44765 -1.98828,-1.84375 0.29809,-1.97922 -0.37859,-2.14113 -3.08008,-0.74414 -4.9005,2.53414 -7.16017,1.92137 -11.90234,-3.22461 -6.54184,-7.09897 -8.28469,-11.74058 -8.48047,-22.58593 -0.17662,-9.77821 1.71103,-16.14143 5.16015,-17.39454 0.92096,-0.33456 3.15234,-1.88225 4.95899,-3.43945 4.14947,-3.57672 5.63041,-3.55004 9.86719,0.16992 1.87925,1.64999 4.43579,3 5.68164,3 1.24588,0 2.73229,0.46671 3.30273,1.03711 0.71622,0.71622 1.88187,0.71622 3.76563,0 1.50039,-0.5704 4.31604,-1.03711 6.25781,-1.03711 9.55907,0 15.77443,-12.41522 9.63281,-19.24218 -1.89566,-2.10717 -11.53095,-6.75782 -14,-6.75782 z m -59.38477,7.99805 c -0.32107,0.0139 -0.77888,0.1207 -1.36523,0.3457 -0.84873,0.32569 -1.54297,1.0609 -1.54297,1.63282 0,0.65824 0.718,0.59089 1.95508,-0.18165 1.65702,-1.03483 1.91647,-1.83867 0.95312,-1.79687 z m 114.6875,8.02344 c -0.73161,-0.0441 -1.52361,0.19755 -1.76367,0.76367 -0.1833,0.43238 -1.7393,1.77366 -3.45898,2.98047 -5.28851,3.71123 -8.79671,13.66622 -5.85352,16.60937 3.30546,3.3055 5.83148,0.6728 4.90625,-5.11328 -0.74687,-4.67066 1.17112,-9.1126 5.02344,-11.63672 1.40311,-0.91937 2.55078,-2.1111 2.55078,-2.64843 0,-0.5806 -0.67264,-0.91098 -1.4043,-0.95508 z m 9.13477,6.07812 c -0.42226,-0.0114 -0.86548,0.16604 -1.41797,0.50196 -0.99696,0.60616 -1.95706,2.06867 -2.13281,3.25 -0.17575,1.18132 -0.73825,2.14843 -1.25,2.14843 -1.41426,0 -1.11288,2.29337 0.62695,4.77735 2.04431,2.91866 4.82158,2.82017 6.82813,-0.24219 2.132924,-3.25535 2.038584,-5.79892 -0.32227,-8.67578 -0.98414,-1.19925 -1.62825,-1.74078 -2.33203,-1.75977 z m -84.56836,6.90039 c -2.55919,0 -7.16211,3.74924 -7.16211,5.83399 0,1.19251 0.3781,1.13146 1.98047,-0.31836 1.62138,-1.46733 2.2571,-1.56276 3.5,-0.53125 1.94597,1.61525 1.94575,3.01562 -0.002,3.01562 -0.83683,0 -2.03366,1.12501 -2.66016,2.5 -0.62649,1.37503 -1.5737,2.5 -2.10351,2.5 -0.55987,0 -0.76545,2.37587 -0.49219,5.67188 0.3837,4.62682 0.95847,6.06111 3.12304,7.78711 1.45943,1.16371 2.6543,2.86476 2.6543,3.77929 0,0.9145 0.78751,2.12107 1.75,2.68164 2.45741,1.43131 2.68332,1.37333 5.43164,-1.375 3.65772,-3.65767 6.63588,-9.71782 5.05078,-10.27734 -0.69732,-0.24616 -1.97681,-1.15459 -2.84179,-2.01953 -1.5498,-1.54961 -1.53373,-2.65566 0.15625,-10.875 0.56266,-2.73657 0.21397,-3.45352 -2.79688,-5.75 -1.89184,-1.44299 -4.40648,-2.62305 -5.58789,-2.62305 z m 1.95313,9.55078 c 0.72455,0.0754 0.65138,1.58098 0.26562,4.86329 -0.45581,3.87806 -0.26769,6.01813 0.625,7.09375 0.70322,0.84714 1.10253,1.70076 0.88672,1.89843 -0.66883,0.61221 -5.29453,-1.44051 -6.09961,-2.70703 -1.38648,-2.18113 -0.82898,-7.35877 0.95703,-8.89258 1.75562,-1.5077 2.80169,-2.31447 3.36524,-2.25586 z m 94.968746,16.44922 c -2.390211,0 -4.270995,6.47901 -2.417968,8.33203 1.256121,1.25617 2.383841,0.66666 3.292968,-1.72461 0.924057,-2.43038 0.371224,-6.60742 -0.875,-6.60742 z m -33.210936,24.30664 c 0.51231,0.0792 1.31268,0.66762 2.36719,1.79493 1.24297,1.3288 5.52225,3.50088 9.50976,4.82617 7.17887,2.38601 8.37381,3.54611 6.04883,5.87109 -3.85924,3.85924 -15.52209,-1.8365 -17.93555,-8.75976 -0.89886,-2.57847 -0.84408,-3.86444 0.01,-3.73243 z"
       style="fill:#000000;stroke-width:0.999999"
       id="path2668" />
  </g>
</svg>
