<svg xmlns="http://www.w3.org/2000/svg" xmlns:xlink="http://www.w3.org/1999/xlink" viewBox="0 0 332.45 332.45"><defs><style>.cls-1{fill:url(#linear-gradient);}</style><linearGradient id="linear-gradient" x1="158.43" y1="-22.83" x2="168.49" y2="221.21" gradientUnits="userSpaceOnUse"><stop offset="0" stop-color="#61bf89"/><stop offset="0.05" stop-color="#4ca588"/><stop offset="0.12" stop-color="#368a87"/><stop offset="0.2" stop-color="#247486"/><stop offset="0.29" stop-color="#166386"/><stop offset="0.4" stop-color="#0c5885"/><stop offset="0.56" stop-color="#075185"/><stop offset="1" stop-color="#054f85"/></linearGradient></defs><title>أعلن عن عيادتك معنا</title><g id="Layer_2" data-name="Layer 2"><g id="واجهة_الخدمات" data-name="واجهة الخدمات"><path class="cls-1" d="M212.43,100.8a65.93,65.93,0,0,0-93.14,0,4.66,4.66,0,0,0,6.59,6.58,56.59,56.59,0,0,1,80,0,4.66,4.66,0,0,0,6.6-6.59Zm-15.14,33.4v16.16h25.15a4,4,0,0,1,4,4V265.07a4,4,0,0,1-4,4H111.73a4,4,0,0,1-4-4V154.35a4,4,0,0,1,4-4h25.15V134.2H91.58v151h151v-151Zm0,0v16.16h25.15a4,4,0,0,1,4,4V265.07a4,4,0,0,1-4,4H111.73a4,4,0,0,1-4-4V154.35a4,4,0,0,1,4-4h25.15V134.2H91.58v151h151v-151Zm15.14-33.4a65.93,65.93,0,0,0-93.14,0,4.66,4.66,0,0,0,6.59,6.58,56.59,56.59,0,0,1,80,0,4.66,4.66,0,0,0,6.6-6.59ZM273,0H59.48A59.48,59.48,0,0,0,0,59.48V273a59.47,59.47,0,0,0,59.48,59.47H273A59.47,59.47,0,0,0,332.45,273V59.48A59.48,59.48,0,0,0,273,0ZM93.43,73.42a102.53,102.53,0,0,1,144.84,0,9,9,0,1,1-12.68,12.69,84.58,84.58,0,0,0-119.47,0A9,9,0,1,1,93.43,73.42ZM203.28,195.36V219.8h-22v22.89H157.67V219.8h-22V195.36h22V172.47H181.3v22.89Zm-74.35-84.9a9,9,0,0,1-12.69-12.69,70.24,70.24,0,0,1,99.23,0,9,9,0,1,1-12.68,12.69A52.26,52.26,0,0,0,128.93,110.46ZM250.57,289.2a4,4,0,0,1-4,4h-159a4,4,0,0,1-4-4v-159a4,4,0,0,1,4-4h53.28a4,4,0,0,1,4,4v24.14a4,4,0,0,1-4,4H115.72V261.07H218.44V158.34H193.29a4,4,0,0,1-4-4V130.21a4,4,0,0,1,4-4h53.28a4,4,0,0,1,4,4ZM197.29,150.36h25.15a4,4,0,0,1,4,4V265.07a4,4,0,0,1-4,4H111.73a4,4,0,0,1-4-4V154.35a4,4,0,0,1,4-4h25.15V134.2H91.58v151h151v-151H197.29Zm-94.22-67.3a88.88,88.88,0,0,1,125.57,0,4.66,4.66,0,0,0,6.59-6.59,98.25,98.25,0,0,0-138.76,0,4.67,4.67,0,0,0,6.6,6.6Zm109.36,24.33a4.66,4.66,0,0,0,0-6.59,65.93,65.93,0,0,0-93.14,0,4.66,4.66,0,0,0,6.59,6.58,56.59,56.59,0,0,1,80,0A4.68,4.68,0,0,0,212.43,107.39ZM197.29,134.2v16.16h25.15a4,4,0,0,1,4,4V265.07a4,4,0,0,1-4,4H111.73a4,4,0,0,1-4-4V154.35a4,4,0,0,1,4-4h25.15V134.2H91.58v151h151v-151Zm0,0v16.16h25.15a4,4,0,0,1,4,4V265.07a4,4,0,0,1-4,4H111.73a4,4,0,0,1-4-4V154.35a4,4,0,0,1,4-4h25.15V134.2H91.58v151h151v-151Z"/></g></g></svg>