<svg xmlns="http://www.w3.org/2000/svg" xmlns:xlink="http://www.w3.org/1999/xlink" viewBox="0 0 332.45 332.45"><defs><style>.cls-1{fill:url(#linear-gradient);}.cls-2{fill:url(#linear-gradient-2);}.cls-3{fill:url(#linear-gradient-3);}.cls-4{fill:url(#linear-gradient-4);}.cls-5{fill:url(#linear-gradient-5);}.cls-6{fill:url(#linear-gradient-6);}</style><linearGradient id="linear-gradient" x1="154.14" y1="85.46" x2="160.43" y2="194.49" gradientUnits="userSpaceOnUse"><stop offset="0" stop-color="#61bf89"/><stop offset="0.05" stop-color="#4ca588"/><stop offset="0.12" stop-color="#368a87"/><stop offset="0.2" stop-color="#247486"/><stop offset="0.29" stop-color="#166386"/><stop offset="0.4" stop-color="#0c5885"/><stop offset="0.56" stop-color="#075185"/><stop offset="1" stop-color="#054f85"/></linearGradient><linearGradient id="linear-gradient-2" x1="83.84" y1="109.86" x2="174.41" y2="240.69" gradientUnits="userSpaceOnUse"><stop offset="0" stop-color="#61bf89"/><stop offset="0.03" stop-color="#59b589"/><stop offset="0.13" stop-color="#3f9688"/><stop offset="0.25" stop-color="#2a7c87"/><stop offset="0.38" stop-color="#196886"/><stop offset="0.52" stop-color="#0e5a85"/><stop offset="0.7" stop-color="#075185"/><stop offset="1" stop-color="#054f85"/></linearGradient><linearGradient id="linear-gradient-3" x1="61.85" y1="215.57" x2="228.32" y2="223.54" xlink:href="#linear-gradient"/><linearGradient id="linear-gradient-4" x1="238.37" y1="208.81" x2="239.63" y2="239" xlink:href="#linear-gradient"/><linearGradient id="linear-gradient-5" x1="221.38" y1="60.34" x2="236.48" y2="242.75" xlink:href="#linear-gradient"/><linearGradient id="linear-gradient-6" x1="162.15" y1="-54.11" x2="169.69" y2="353.47" xlink:href="#linear-gradient"/></defs><title>إكساء وديكورات</title><g id="Layer_2" data-name="Layer 2"><g id="واجهة_الخدمات" data-name="واجهة الخدمات"><path class="cls-1" d="M120.45,134.17c-4.37-4.2-8.72-8.41-13.1-12.61l29-30.14,64.54,62.16q5,33.82,9.92,67.64Z"/><path class="cls-2" d="M212.46,232.25,101.39,182.08l-16.84-7.63,17.23-38.14,21.2,9.57,84.3,81.19,5.15,5Z"/><path class="cls-3" d="M117.92,196.83q47.54,21.49,95.08,43l-104.79-1.23q-9-.1-18.08-.21.25-20.92.5-41.84Q104.28,196.69,117.92,196.83Z"/><path class="cls-4" d="M246.55,221.86a7.63,7.63,0,1,1-7.63-7.63A7.64,7.64,0,0,1,246.55,221.86Z"/><path class="cls-5" d="M259.51,218.74Q249,146.7,238.38,74.63L196.93,80.7q1.29,8.77,2.57,17.54l21.15,144.13q20.7-3.06,41.43-6.08Q260.81,227.52,259.51,218.74Zm-20.59,14.31a11.19,11.19,0,1,1,11.2-11.19A11.21,11.21,0,0,1,238.92,233.05Z"/><path class="cls-6" d="M273,0H59.48A59.48,59.48,0,0,0,0,59.48V273a59.47,59.47,0,0,0,59.48,59.47H273A59.47,59.47,0,0,0,332.45,273V59.48A59.48,59.48,0,0,0,273,0Zm-6.24,242.31-6.61,1v.37a3.41,3.41,0,0,1-3.35,3.35l-18.33-.22c-.15.34-.31.7-.47,1-.8,1.78-3.06,1.88-4.56,1.19l-3-1.37-11.64,1.71c-1.6.24-3.83-.4-4.11-2.33,0-.18-.05-.36-.08-.52L86.76,245a3.4,3.4,0,0,1-3.35-3.35q.3-24.24.58-48.51a3.38,3.38,0,0,1,3.34-3.33l15.41.17L78.46,179c-1.78-.8-1.88-3.06-1.2-4.56q10-22.11,20-44.22c.8-1.77,3.06-1.88,4.57-1.2l6.9,3.12L100.27,124a3.4,3.4,0,0,1,0-4.73l33.66-34.94a3.38,3.38,0,0,1,4.72,0L154.1,99.22l45.24,43.56q-4.69-32-9.4-64c-.22-1.59.4-3.82,2.34-4.11l48-7c1.6-.24,3.83.4,4.11,2.34l3.12,21.22q10.78,73.5,21.56,147a3.82,3.82,0,0,1,0,.82A2.66,2.66,0,0,1,266.73,242.31Z"/></g></g></svg>