<svg xmlns="http://www.w3.org/2000/svg" xmlns:xlink="http://www.w3.org/1999/xlink" viewBox="0 0 332.62 332.62"><defs><style>.cls-1{fill:url(#linear-gradient);}.cls-2{fill:url(#linear-gradient-2);}.cls-3{fill:#fefefe;}.cls-4{fill:url(#linear-gradient-3);}.cls-5{fill:url(#linear-gradient-4);}.cls-6{fill:url(#linear-gradient-5);}.cls-7{fill:url(#linear-gradient-6);}.cls-8{fill:url(#linear-gradient-7);}.cls-9{fill:url(#linear-gradient-8);}.cls-10{fill:url(#linear-gradient-9);}.cls-11{fill:url(#linear-gradient-10);}.cls-12{fill:url(#linear-gradient-11);}.cls-13{fill:url(#linear-gradient-12);}.cls-14{fill:url(#linear-gradient-13);}.cls-15{fill:#226d8a;opacity:0.1;}</style><linearGradient id="linear-gradient" x1="163.44" y1="-53.01" x2="169.1" y2="379.33" gradientUnits="userSpaceOnUse"><stop offset="0" stop-color="#61bf89"/><stop offset="0.03" stop-color="#57b289"/><stop offset="0.13" stop-color="#3e9487"/><stop offset="0.24" stop-color="#297b87"/><stop offset="0.37" stop-color="#196786"/><stop offset="0.51" stop-color="#0e5985"/><stop offset="0.68" stop-color="#075185"/><stop offset="1" stop-color="#054f85"/></linearGradient><linearGradient id="linear-gradient-2" x1="138.09" y1="63.14" x2="138.09" y2="229.28" gradientUnits="userSpaceOnUse"><stop offset="0" stop-color="#61bf89"/><stop offset="0.05" stop-color="#4fa988"/><stop offset="0.13" stop-color="#388d87"/><stop offset="0.22" stop-color="#257686"/><stop offset="0.32" stop-color="#176586"/><stop offset="0.44" stop-color="#0d5885"/><stop offset="0.6" stop-color="#075185"/><stop offset="1" stop-color="#054f85"/></linearGradient><linearGradient id="linear-gradient-3" x1="101.84" y1="119.09" x2="103.73" y2="164.41" gradientUnits="userSpaceOnUse"><stop offset="0" stop-color="#61bf89"/><stop offset="0.11" stop-color="#4ba588"/><stop offset="0.26" stop-color="#328687"/><stop offset="0.42" stop-color="#1e6e86"/><stop offset="0.59" stop-color="#105c85"/><stop offset="0.78" stop-color="#085285"/><stop offset="1" stop-color="#054f85"/></linearGradient><linearGradient id="linear-gradient-4" x1="131.23" y1="87.37" x2="131.23" y2="110.66" gradientUnits="userSpaceOnUse"><stop offset="0" stop-color="#61bf89"/><stop offset="0.07" stop-color="#54af88"/><stop offset="0.25" stop-color="#388d87"/><stop offset="0.43" stop-color="#217286"/><stop offset="0.62" stop-color="#125e86"/><stop offset="0.8" stop-color="#085385"/><stop offset="1" stop-color="#054f85"/></linearGradient><linearGradient id="linear-gradient-5" x1="137.04" y1="164.83" x2="138.3" y2="202.9" gradientUnits="userSpaceOnUse"><stop offset="0" stop-color="#61bf89"/><stop offset="0.05" stop-color="#4ca588"/><stop offset="0.12" stop-color="#368a87"/><stop offset="0.2" stop-color="#247486"/><stop offset="0.29" stop-color="#166386"/><stop offset="0.4" stop-color="#0c5885"/><stop offset="0.56" stop-color="#075185"/><stop offset="1" stop-color="#054f85"/></linearGradient><linearGradient id="linear-gradient-6" x1="145.9" y1="135.82" x2="145.58" y2="150.61" gradientUnits="userSpaceOnUse"><stop offset="0" stop-color="#61bf89"/><stop offset="0.01" stop-color="#5ebc89"/><stop offset="0.13" stop-color="#439a88"/><stop offset="0.26" stop-color="#2c7f87"/><stop offset="0.4" stop-color="#1b6a86"/><stop offset="0.55" stop-color="#0e5b85"/><stop offset="0.73" stop-color="#075285"/><stop offset="1" stop-color="#054f85"/></linearGradient><linearGradient id="linear-gradient-7" x1="166.18" y1="115.69" x2="166.18" y2="127.33" gradientUnits="userSpaceOnUse"><stop offset="0" stop-color="#61bf89"/><stop offset="0.41" stop-color="#378b87"/><stop offset="0.8" stop-color="#136086"/><stop offset="1" stop-color="#054f85"/></linearGradient><linearGradient id="linear-gradient-8" x1="180.04" y1="134.57" x2="180.04" y2="166.04" gradientUnits="userSpaceOnUse"><stop offset="0" stop-color="#61bf89"/><stop offset="0.01" stop-color="#5fbd89"/><stop offset="0.13" stop-color="#439b88"/><stop offset="0.26" stop-color="#2d8087"/><stop offset="0.4" stop-color="#1b6a86"/><stop offset="0.55" stop-color="#0f5b85"/><stop offset="0.73" stop-color="#075285"/><stop offset="1" stop-color="#054f85"/></linearGradient><linearGradient id="linear-gradient-9" x1="134.02" y1="116.26" x2="133.39" y2="133.57" gradientUnits="userSpaceOnUse"><stop offset="0" stop-color="#61bf89"/><stop offset="0.07" stop-color="#53ae88"/><stop offset="0.25" stop-color="#378c87"/><stop offset="0.43" stop-color="#217186"/><stop offset="0.61" stop-color="#115e86"/><stop offset="0.8" stop-color="#085385"/><stop offset="1" stop-color="#054f85"/></linearGradient><linearGradient id="linear-gradient-10" x1="250.95" y1="137.33" x2="265.63" y2="137.33" xlink:href="#linear-gradient-7"/><linearGradient id="linear-gradient-11" x1="228.29" y1="201.51" x2="239.82" y2="201.51" xlink:href="#linear-gradient-7"/><linearGradient id="linear-gradient-12" x1="281.2" y1="212.02" x2="289.56" y2="212.02" xlink:href="#linear-gradient-7"/><linearGradient id="linear-gradient-13" x1="157.59" y1="234.53" x2="161.77" y2="234.53" xlink:href="#linear-gradient-7"/></defs><title>تعقيم العيادة</title><g id="Layer_2" data-name="Layer 2"><g id="واجهة_الخدمات" data-name="واجهة الخدمات"><g id="تعقيم_العيادة" data-name="تعقيم العيادة"><path class="cls-1" d="M269.26,0H63.38A63.38,63.38,0,0,0,0,63.37V269.25a63.38,63.38,0,0,0,63.38,63.37H269.26a63.37,63.37,0,0,0,63.36-63.37V63.37A63.37,63.37,0,0,0,269.26,0ZM153.89,245.86A10.11,10.11,0,1,1,164,235.75,10.11,10.11,0,0,1,153.89,245.86Zm52.62,1.64a36.58,36.58,0,0,1-36.58-36.58c0-1.06,0-2.1.14-3.13a36.16,36.16,0,0,1,3.12-12,59.49,59.49,0,0,0,7.63-6.44,65.22,65.22,0,0,0,4.46-5.09c-.52-.66-1-1.33-1.51-2a50.08,50.08,0,0,1,6.63-65.86,50.14,50.14,0,1,1,51.11,83.9,36.58,36.58,0,0,1-35,47.18Zm66-11.75a20.23,20.23,0,1,1,20.23-20.23A20.23,20.23,0,0,1,272.49,235.75Z"/><path class="cls-2" d="M207.22,146.64a68.51,68.51,0,0,1-6,28.09,36,36,0,0,0-12,4,63.92,63.92,0,0,1-8.38,10.66,59.49,59.49,0,0,1-7.63,6.44,36.16,36.16,0,0,0-3.12,12,68.8,68.8,0,0,1-32,7.73,67.37,67.37,0,0,1-48.67-20.2A69,69,0,0,1,138.09,77.5,69.55,69.55,0,0,1,187,97.7,68.27,68.27,0,0,1,197.38,111,69.09,69.09,0,0,1,207.22,146.64Z"/><path class="cls-3" d="M198.42,146.64a60.36,60.36,0,0,1-9.22,32.07,63.92,63.92,0,0,1-8.38,10.66A60.35,60.35,0,0,1,138.09,207a60.47,60.47,0,1,1,60.33-60.34Z"/><path class="cls-4" d="M103.14,128.78A18.51,18.51,0,1,1,84.5,147.15a18.44,18.44,0,0,1,18.64-18.37Z"/><path class="cls-5" d="M131.1,93.3a8.16,8.16,0,1,1-8,8,8.13,8.13,0,0,1,8-8Z"/><path class="cls-6" d="M137.84,168.65A16.18,16.18,0,1,1,121.52,185a16.18,16.18,0,0,1,16.32-16.31Z"/><path class="cls-7" d="M145.6,138.36a5.52,5.52,0,0,1,5.7,5.43,5.75,5.75,0,0,1-5.7,5.7,5.54,5.54,0,0,1-5.44-5.7,5.31,5.31,0,0,1,5.44-5.43Z"/><path class="cls-8" d="M166.06,118.68a3.89,3.89,0,1,1-3.63,3.87,3.76,3.76,0,0,1,3.63-3.87Z"/><path class="cls-9" d="M180,139.39a13.72,13.72,0,1,1-13.72,13.73A13.81,13.81,0,0,1,180,139.39Z"/><path class="cls-10" d="M133.7,119.72a5.69,5.69,0,1,1-5.7,5.69,5.75,5.75,0,0,1,5.7-5.69Z"/><path class="cls-11" d="M263.11,151.9c-3.37,1.4.52-6.45-2.84-14.54A59.14,59.14,0,0,0,251,122.59s8.81,4,12.17,12.13S266.47,150.51,263.11,151.9Z"/><path class="cls-12" d="M237.84,216.47c-2.65,1.44.21-7.14-2.42-15.46a58.8,58.8,0,0,0-7.13-14.63,24.19,24.19,0,0,1,9.56,12.45C240.49,207.15,240.48,215.05,237.84,216.47Z"/><path class="cls-13" d="M288.12,222.87c-1.92,1,.16-5.18-1.76-11.21a42.57,42.57,0,0,0-5.16-10.6,17.56,17.56,0,0,1,6.93,9C290,216.11,290,221.83,288.12,222.87Z"/><path class="cls-14" d="M161.05,240c-1,.52.08-2.59-.88-5.6a21.36,21.36,0,0,0-2.58-5.31,8.83,8.83,0,0,1,3.47,4.52C162,236.57,162,239.43,161.05,240Z"/></g><path class="cls-15" d="M189.2,178.71a63.92,63.92,0,0,1-8.38,10.66,59.49,59.49,0,0,1-7.63,6.44,36.58,36.58,0,0,1,10.58-13.53A35.08,35.08,0,0,1,189.2,178.71Z"/></g></g></svg>