<svg xmlns="http://www.w3.org/2000/svg" xmlns:xlink="http://www.w3.org/1999/xlink" viewBox="0 0 332.62 332.62"><defs><style>.cls-1{fill:url(#linear-gradient);}.cls-2{fill:url(#linear-gradient-2);}.cls-3{fill:none;}</style><linearGradient id="linear-gradient" x1="242.67" y1="62.2" x2="242.67" y2="133.94" gradientUnits="userSpaceOnUse"><stop offset="0" stop-color="#61bf89"/><stop offset="0.03" stop-color="#59b689"/><stop offset="0.13" stop-color="#3f9688"/><stop offset="0.25" stop-color="#2a7c87"/><stop offset="0.38" stop-color="#1a6886"/><stop offset="0.52" stop-color="#0e5a85"/><stop offset="0.7" stop-color="#075185"/><stop offset="1" stop-color="#054f85"/></linearGradient><linearGradient id="linear-gradient-2" x1="163.76" y1="-35" x2="168.48" y2="337.87" gradientUnits="userSpaceOnUse"><stop offset="0" stop-color="#61bf89"/><stop offset="0.05" stop-color="#4ca588"/><stop offset="0.12" stop-color="#368a87"/><stop offset="0.2" stop-color="#247486"/><stop offset="0.29" stop-color="#166386"/><stop offset="0.4" stop-color="#0c5885"/><stop offset="0.56" stop-color="#075185"/><stop offset="1" stop-color="#054f85"/></linearGradient></defs><title>صيانة أجهزتي</title><g id="Layer_2" data-name="Layer 2"><g id="واجهة_الخدمات" data-name="واجهة الخدمات"><g id="صيانة_أجهزتي" data-name="صيانة أجهزتي"><path class="cls-1" d="M262.18,81.5a27.8,27.8,0,0,0-19.38-7.91,27.45,27.45,0,0,0-19.4,7.91,28.07,28.07,0,0,0-8.15,19.38,27.87,27.87,0,0,0,27.55,27.56,28,28,0,0,0,19.38-8.17,27.27,27.27,0,0,0,7.91-19.39A27.77,27.77,0,0,0,262.18,81.5Zm-18.37,24a8,8,0,0,1-7.91-.25,7.7,7.7,0,0,1-2-10.47,7.56,7.56,0,0,1,10.45-2.3,7.31,7.31,0,0,1,3.32,7.16L263.2,113.9Z"/><path class="cls-2" d="M139.28,267.2a13.95,13.95,0,0,0-10.48,2.17,14,14,0,1,0,10.48-2.17Zm0,0a13.95,13.95,0,0,0-10.48,2.17,14,14,0,1,0,10.48-2.17Zm0,0a13.95,13.95,0,0,0-10.48,2.17,14,14,0,1,0,10.48-2.17Zm0,0a13.95,13.95,0,0,0-10.48,2.17,14,14,0,1,0,10.48-2.17Zm0,0a13.95,13.95,0,0,0-10.48,2.17,14,14,0,1,0,10.48-2.17Zm0,0a13.95,13.95,0,0,0-10.48,2.17,14,14,0,1,0,10.48-2.17ZM165.68,283a2.67,2.67,0,0,1-2.19-2.59,26.8,26.8,0,0,0-2-9.71,2.7,2.7,0,0,1,1-3.26l3.39-2.31-.57-.84-3.21-4.73-3.39,2.32a2.7,2.7,0,0,1-3.39-.3,26.59,26.59,0,0,0-8.28-5.45,2.7,2.7,0,0,1-1.62-3l.78-4-6.62-1.26-.77,4a2.69,2.69,0,0,1-2.6,2.19c-.81,0-1.62.07-2.43.15a27.29,27.29,0,0,0-7.28,1.87,2.68,2.68,0,0,1-3.25-1l-2.31-3.4-5.57,3.78,2.31,3.4a2.7,2.7,0,0,1-.29,3.39,26.74,26.74,0,0,0-5.46,8.28,2.68,2.68,0,0,1-3,1.61l-4-.76-1.26,6.61,4,.76a2.7,2.7,0,0,1,2.19,2.61,26.73,26.73,0,0,0,2,9.71,2.72,2.72,0,0,1-1,3.26l-3.39,2.3,3.78,5.57,3.39-2.31a2.69,2.69,0,0,1,3.39.29,26.59,26.59,0,0,0,8.28,5.45,2.68,2.68,0,0,1,1.62,3l-.77,4,6.61,1.26.78-4a2.67,2.67,0,0,1,2.59-2.18,26.66,26.66,0,0,0,9.71-2,2.7,2.7,0,0,1,3.25,1l2.31,3.4,5.57-3.78-2.31-3.4a2.69,2.69,0,0,1,.29-3.38,26.72,26.72,0,0,0,5.46-8.29,2.67,2.67,0,0,1,3-1.61l4,.76,1.26-6.61Zm-10,1.53a19.41,19.41,0,0,1-19,15.74A19.65,19.65,0,0,1,133,300a19.37,19.37,0,1,1,22.66-15.4ZM139.28,267.2a13.95,13.95,0,0,0-10.48,2.17,14,14,0,1,0,10.48-2.17Zm0,0a13.95,13.95,0,0,0-10.48,2.17,14,14,0,1,0,10.48-2.17Zm0,0a13.95,13.95,0,0,0-10.48,2.17,14,14,0,1,0,10.48-2.17Zm0,0a13.95,13.95,0,0,0-10.48,2.17,14,14,0,1,0,10.48-2.17Zm0,0a13.95,13.95,0,0,0-10.48,2.17,14,14,0,1,0,10.48-2.17ZM165.68,283a2.67,2.67,0,0,1-2.19-2.59,26.8,26.8,0,0,0-2-9.71,2.7,2.7,0,0,1,1-3.26l3.39-2.31-.57-.84-3.21-4.73-3.39,2.32a2.7,2.7,0,0,1-3.39-.3,26.59,26.59,0,0,0-8.28-5.45,2.7,2.7,0,0,1-1.62-3l.78-4-6.62-1.26-.77,4a2.69,2.69,0,0,1-2.6,2.19c-.81,0-1.62.07-2.43.15a27.29,27.29,0,0,0-7.28,1.87,2.68,2.68,0,0,1-3.25-1l-2.31-3.4-5.57,3.78,2.31,3.4a2.7,2.7,0,0,1-.29,3.39,26.74,26.74,0,0,0-5.46,8.28,2.68,2.68,0,0,1-3,1.61l-4-.76-1.26,6.61,4,.76a2.7,2.7,0,0,1,2.19,2.61,26.73,26.73,0,0,0,2,9.71,2.72,2.72,0,0,1-1,3.26l-3.39,2.3,3.78,5.57,3.39-2.31a2.69,2.69,0,0,1,3.39.29,26.59,26.59,0,0,0,8.28,5.45,2.68,2.68,0,0,1,1.62,3l-.77,4,6.61,1.26.78-4a2.67,2.67,0,0,1,2.59-2.18,26.66,26.66,0,0,0,9.71-2,2.7,2.7,0,0,1,3.25,1l2.31,3.4,5.57-3.78-2.31-3.4a2.69,2.69,0,0,1,.29-3.38,26.72,26.72,0,0,0,5.46-8.29,2.67,2.67,0,0,1,3-1.61l4,.76,1.26-6.61Zm-10,1.53a19.41,19.41,0,0,1-19,15.74A19.65,19.65,0,0,1,133,300a19.37,19.37,0,1,1,22.66-15.4ZM139.28,267.2a13.95,13.95,0,0,0-10.48,2.17,14,14,0,1,0,10.48-2.17Zm0,0a13.95,13.95,0,0,0-10.48,2.17,14,14,0,1,0,10.48-2.17Zm0,0a13.95,13.95,0,0,0-10.48,2.17,14,14,0,1,0,10.48-2.17Zm-43.82-32a2.69,2.69,0,0,1,2.31-2.5l4-.58-1-6.66-4,.58a2.71,2.71,0,0,1-2.92-1.75,26.41,26.41,0,0,0-5.06-8.52,2.71,2.71,0,0,1-.14-3.4l2.2-3,.26-.34-.65-.48-4.74-3.55-2.45,3.28a2.71,2.71,0,0,1-3.31.83,26.6,26.6,0,0,0-9.59-2.46,2.72,2.72,0,0,1-2.51-2.31l-.58-4.06-6.66,1,.58,4.05a2.71,2.71,0,0,1-1.75,2.93A26.6,26.6,0,0,0,51,213.36a2.68,2.68,0,0,1-3.39.13L44.29,211l-4,5.39,3.29,2.46a2.7,2.7,0,0,1,.83,3.3,26.55,26.55,0,0,0-2.46,9.6,2.7,2.7,0,0,1-2.31,2.5l-4.05.59,1,6.65,4.06-.57a2.67,2.67,0,0,1,2.91,1.74,26.52,26.52,0,0,0,5.07,8.53,2.68,2.68,0,0,1,.13,3.39l-2.45,3.29,5.38,4,2.46-3.27a2.68,2.68,0,0,1,2.16-1.09,2.89,2.89,0,0,1,1.14.25A26.65,26.65,0,0,0,67,260.28a2.72,2.72,0,0,1,2.5,2.31l.57,4.06,6.67-1-.59-4.06a2.73,2.73,0,0,1,1.75-2.92,26.21,26.21,0,0,0,8.53-5.06,2.7,2.7,0,0,1,3.4-.13L93.08,256l4-5.39-3.29-2.46a2.68,2.68,0,0,1-.82-3.3A26.75,26.75,0,0,0,95.46,235.23Zm-24,17.45a20.07,20.07,0,0,1-2.77.2,19.4,19.4,0,1,1,2.77-.2Zm-2.74-33.16a15.06,15.06,0,0,0-2,.14,14,14,0,1,0,2-.14Zm70.59,47.68a13.95,13.95,0,0,0-10.48,2.17,14,14,0,1,0,10.48-2.17Zm0,0a13.95,13.95,0,0,0-10.48,2.17,14,14,0,1,0,10.48-2.17ZM165.68,283a2.67,2.67,0,0,1-2.19-2.59,26.8,26.8,0,0,0-2-9.71,2.7,2.7,0,0,1,1-3.26l3.39-2.31-.57-.84-3.21-4.73-3.39,2.32a2.7,2.7,0,0,1-3.39-.3,26.59,26.59,0,0,0-8.28-5.45,2.7,2.7,0,0,1-1.62-3l.78-4-6.62-1.26-.77,4a2.69,2.69,0,0,1-2.6,2.19c-.81,0-1.62.07-2.43.15a27.29,27.29,0,0,0-7.28,1.87,2.68,2.68,0,0,1-3.25-1l-2.31-3.4-5.57,3.78,2.31,3.4a2.7,2.7,0,0,1-.29,3.39,26.74,26.74,0,0,0-5.46,8.28,2.68,2.68,0,0,1-3,1.61l-4-.76-1.26,6.61,4,.76a2.7,2.7,0,0,1,2.19,2.61,26.73,26.73,0,0,0,2,9.71,2.72,2.72,0,0,1-1,3.26l-3.39,2.3,3.78,5.57,3.39-2.31a2.69,2.69,0,0,1,3.39.29,26.59,26.59,0,0,0,8.28,5.45,2.68,2.68,0,0,1,1.62,3l-.77,4,6.61,1.26.78-4a2.67,2.67,0,0,1,2.59-2.18,26.66,26.66,0,0,0,9.71-2,2.7,2.7,0,0,1,3.25,1l2.31,3.4,5.57-3.78-2.31-3.4a2.69,2.69,0,0,1,.29-3.38,26.72,26.72,0,0,0,5.46-8.29,2.67,2.67,0,0,1,3-1.61l4,.76,1.26-6.61Zm-10,1.53a19.41,19.41,0,0,1-19,15.74A19.65,19.65,0,0,1,133,300a19.37,19.37,0,1,1,22.66-15.4ZM139.28,267.2a13.95,13.95,0,0,0-10.48,2.17,14,14,0,1,0,10.48-2.17ZM165.68,283a2.67,2.67,0,0,1-2.19-2.59,26.8,26.8,0,0,0-2-9.71,2.7,2.7,0,0,1,1-3.26l3.39-2.31-.57-.84-3.21-4.73-3.39,2.32a2.7,2.7,0,0,1-3.39-.3,26.59,26.59,0,0,0-8.28-5.45,2.7,2.7,0,0,1-1.62-3l.78-4-6.62-1.26-.77,4a2.69,2.69,0,0,1-2.6,2.19c-.81,0-1.62.07-2.43.15a27.29,27.29,0,0,0-7.28,1.87,2.68,2.68,0,0,1-3.25-1l-2.31-3.4-5.57,3.78,2.31,3.4a2.7,2.7,0,0,1-.29,3.39,26.74,26.74,0,0,0-5.46,8.28,2.68,2.68,0,0,1-3,1.61l-4-.76-1.26,6.61,4,.76a2.7,2.7,0,0,1,2.19,2.61,26.73,26.73,0,0,0,2,9.71,2.72,2.72,0,0,1-1,3.26l-3.39,2.3,3.78,5.57,3.39-2.31a2.69,2.69,0,0,1,3.39.29,26.59,26.59,0,0,0,8.28,5.45,2.68,2.68,0,0,1,1.62,3l-.77,4,6.61,1.26.78-4a2.67,2.67,0,0,1,2.59-2.18,26.66,26.66,0,0,0,9.71-2,2.7,2.7,0,0,1,3.25,1l2.31,3.4,5.57-3.78-2.31-3.4a2.69,2.69,0,0,1,.29-3.38,26.72,26.72,0,0,0,5.46-8.29,2.67,2.67,0,0,1,3-1.61l4,.76,1.26-6.61Zm-10,1.53a19.41,19.41,0,0,1-19,15.74A19.65,19.65,0,0,1,133,300a19.37,19.37,0,1,1,22.66-15.4ZM139.28,267.2a13.95,13.95,0,0,0-10.48,2.17,14,14,0,1,0,10.48-2.17ZM96.81,226.07a2.71,2.71,0,0,1-2.92-1.75,26.41,26.41,0,0,0-5.06-8.52,2.71,2.71,0,0,1-.14-3.4l2.2-3,.26-.34-.65-.48-4.74-3.55-2.45,3.28a2.71,2.71,0,0,1-3.31.83,26.6,26.6,0,0,0-9.59-2.46,2.72,2.72,0,0,1-2.51-2.31l-.58-4.06-6.66,1,.58,4.05a2.71,2.71,0,0,1-1.75,2.93A26.6,26.6,0,0,0,51,213.36a2.68,2.68,0,0,1-3.39.13L44.29,211l-4,5.39,3.29,2.46a2.7,2.7,0,0,1,.83,3.3,26.55,26.55,0,0,0-2.46,9.6,2.7,2.7,0,0,1-2.31,2.5l-4.05.59,1,6.65,4.06-.57a2.67,2.67,0,0,1,2.91,1.74,26.52,26.52,0,0,0,5.07,8.53,2.68,2.68,0,0,1,.13,3.39l-2.45,3.29,5.38,4,2.46-3.27a2.68,2.68,0,0,1,2.16-1.09,2.89,2.89,0,0,1,1.14.25A26.65,26.65,0,0,0,67,260.28a2.72,2.72,0,0,1,2.5,2.31l.57,4.06,6.67-1-.59-4.06a2.73,2.73,0,0,1,1.75-2.92,26.21,26.21,0,0,0,8.53-5.06,2.7,2.7,0,0,1,3.4-.13L93.08,256l4-5.39-3.29-2.46a2.68,2.68,0,0,1-.82-3.3,26.75,26.75,0,0,0,2.46-9.6,2.69,2.69,0,0,1,2.31-2.5l4-.58-1-6.66ZM71.43,252.68a20.07,20.07,0,0,1-2.77.2,19.4,19.4,0,1,1,2.77-.2Zm-2.74-33.16a15.06,15.06,0,0,0-2,.14,14,14,0,1,0,2-.14ZM269.26,0H63.37A63.37,63.37,0,0,0,0,63.37V269.25a63.37,63.37,0,0,0,63.37,63.37H269.26a63.37,63.37,0,0,0,63.36-63.37V63.37A63.37,63.37,0,0,0,269.26,0Zm-215,160.32L65,86.85c1-6.89,8.68-12,17.1-11h1L68.83,174.35H67.55C59.38,173.33,53.27,167.21,54.29,160.32Zm215.8-32.15A39.06,39.06,0,0,1,250.2,138.9c7.4,50.76-8.93,83.15-33.92,100l-.79.51.28,1.28a2.36,2.36,0,0,1-.52,1.77,2.58,2.58,0,0,1-1.79,1l-3.83.51c-1.26,5.37-5.61,10-12,13.54-6.83,3.86-15.87,6.29-25.88,6.77l0,.08a2.69,2.69,0,0,1-.71,3.74l-3.88,2.64a32.26,32.26,0,0,1,1.54,7.4l4.59.87a2.7,2.7,0,0,1,2.14,3.16l-2.27,11.9a2.7,2.7,0,0,1-3.15,2.15l-4.6-.88a32.14,32.14,0,0,1-4.15,6.31l2.63,3.88a2.7,2.7,0,0,1-.71,3.75l-10,6.8a2.61,2.61,0,0,1-2,.42,2.69,2.69,0,0,1-1.73-1.13l-2.64-3.87a32.72,32.72,0,0,1-7.39,1.54l-.88,4.59a2.69,2.69,0,0,1-2.64,2.19,2.94,2.94,0,0,1-.51-.05l-11.91-2.27a2.69,2.69,0,0,1-2.14-3.15l.87-4.6a32.07,32.07,0,0,1-6.3-4.15l-3.88,2.63a2.68,2.68,0,0,1-3.74-.72l-6.81-10a2.7,2.7,0,0,1,.71-3.75l3.88-2.63a31.28,31.28,0,0,1-1.55-7.39l-4.59-.89a2.67,2.67,0,0,1-2.14-3.15l2.27-11.9a2.71,2.71,0,0,1,3.15-2.15l4.6.88a32.14,32.14,0,0,1,4.15-6.31l-2.63-3.87a2.69,2.69,0,0,1-.42-2,2.61,2.61,0,0,1,1.13-1.72l10-6.83a2.65,2.65,0,0,1,2-.41,2.74,2.74,0,0,1,1.74,1.13l2.63,3.87c.9-.3,1.81-.55,2.73-.78a17.41,17.41,0,0,1-2.73-5.33V244a2,2,0,0,0-1-.51l-3.83-.51-.51-.24a2,2,0,0,1-1.77-2l.25-.51-.76-.51c-.51-.26-.77-.51-1.29-.77a77.42,77.42,0,0,1-10.45-8l.45,3.12a2.69,2.69,0,0,1-2.28,3l-4.63.66a32.11,32.11,0,0,1-1.88,7.33l3.74,2.81a2.69,2.69,0,0,1,.55,3.77l-7.27,9.7a2.7,2.7,0,0,1-3.77.55l-3.75-2.81a33,33,0,0,1-6.5,3.85l.67,4.63a2.71,2.71,0,0,1-2.28,3.06l-12,1.72a2.34,2.34,0,0,1-.38,0,2.76,2.76,0,0,1-1.61-.54,2.72,2.72,0,0,1-1.06-1.78l-.67-4.63a32.19,32.19,0,0,1-7.31-1.87l-2.81,3.75a2.71,2.71,0,0,1-3.78.54l-9.7-7.27a2.68,2.68,0,0,1-1.05-1.78,2.72,2.72,0,0,1,.51-2l2.81-3.74a31.36,31.36,0,0,1-3.85-6.5l-4.63.67A2.7,2.7,0,0,1,31.54,245l-1.72-12a2.69,2.69,0,0,1,2.28-3.05l4.63-.66a31.39,31.39,0,0,1,1.88-7.32l-3.75-2.81a2.69,2.69,0,0,1-.55-3.77l7.28-9.7a2.67,2.67,0,0,1,3.76-.55l3.75,2.81a32.59,32.59,0,0,1,6.5-3.86l-.66-4.63a2.69,2.69,0,0,1,2.28-3l12-1.73a2.71,2.71,0,0,1,3.06,2.29l.66,4.63a31.94,31.94,0,0,1,7.31,1.88l2.81-3.76a2.69,2.69,0,0,1,1.77-1,2.63,2.63,0,0,1,2,.51l.13.08a72.72,72.72,0,0,1-2.83-23.35l-7.67-.76L91,76.66l27.81,2.79c8.16.78,14.28,7.16,13.25,13.78L121.38,167c-1,6.89-8.68,11.74-17.1,11l-11.73-1.26c-.5,23.73,10.71,42.08,27.3,53.82l.76.27v-.51a1,1,0,0,0,.26-.51,2.62,2.62,0,0,1,2.28-1.28l7.67,1,.75-.76a37.82,37.82,0,0,1,6.89-5.11c7.67-4.33,18.12-6.89,29.6-6.89s21.93,2.56,29.59,6.89a27.25,27.25,0,0,1,6.64,5.11l6.87-1a5.06,5.06,0,0,1,2.05.51,4.85,4.85,0,0,1,1.28,1.79c20.91-15.82,33.92-45.16,27.29-90.55a38.44,38.44,0,0,1-26.29-65.82,38.6,38.6,0,0,1,54.6,54.58ZM163.49,280.45a26.8,26.8,0,0,0-2-9.71,2.7,2.7,0,0,1,1-3.26l3.39-2.31-.57-.84-3.21-4.73-3.39,2.32a2.7,2.7,0,0,1-3.39-.3,26.59,26.59,0,0,0-8.28-5.45,2.7,2.7,0,0,1-1.62-3l.78-4-6.62-1.26-.77,4a2.69,2.69,0,0,1-2.6,2.19c-.81,0-1.62.07-2.43.15a27.29,27.29,0,0,0-7.28,1.87,2.68,2.68,0,0,1-3.25-1l-2.31-3.4-5.57,3.78,2.31,3.4a2.7,2.7,0,0,1-.29,3.39,26.74,26.74,0,0,0-5.46,8.28,2.68,2.68,0,0,1-3,1.61l-4-.76-1.26,6.61,4,.76a2.7,2.7,0,0,1,2.19,2.61,26.73,26.73,0,0,0,2,9.71,2.72,2.72,0,0,1-1,3.26l-3.39,2.3,3.78,5.57,3.39-2.31a2.69,2.69,0,0,1,3.39.29,26.59,26.59,0,0,0,8.28,5.45,2.68,2.68,0,0,1,1.62,3l-.77,4,6.61,1.26.78-4a2.67,2.67,0,0,1,2.59-2.18,26.66,26.66,0,0,0,9.71-2,2.7,2.7,0,0,1,3.25,1l2.31,3.4,5.57-3.78-2.31-3.4a2.69,2.69,0,0,1,.29-3.38,26.72,26.72,0,0,0,5.46-8.29,2.67,2.67,0,0,1,3-1.61l4,.76,1.26-6.61-4-.77A2.67,2.67,0,0,1,163.49,280.45Zm-7.8,4.12a19.41,19.41,0,0,1-19,15.74A19.65,19.65,0,0,1,133,300a19.37,19.37,0,1,1,22.66-15.4ZM139.28,267.2a13.95,13.95,0,0,0-10.48,2.17,14,14,0,1,0,10.48-2.17ZM96.81,226.07a2.71,2.71,0,0,1-2.92-1.75,26.41,26.41,0,0,0-5.06-8.52,2.71,2.71,0,0,1-.14-3.4l2.2-3,.26-.34-.65-.48-4.74-3.55-2.45,3.28a2.71,2.71,0,0,1-3.31.83,26.6,26.6,0,0,0-9.59-2.46,2.72,2.72,0,0,1-2.51-2.31l-.58-4.06-6.66,1,.58,4.05a2.71,2.71,0,0,1-1.75,2.93A26.6,26.6,0,0,0,51,213.36a2.68,2.68,0,0,1-3.39.13L44.29,211l-4,5.39,3.29,2.46a2.7,2.7,0,0,1,.83,3.3,26.55,26.55,0,0,0-2.46,9.6,2.7,2.7,0,0,1-2.31,2.5l-4.05.59,1,6.65,4.06-.57a2.67,2.67,0,0,1,2.91,1.74,26.52,26.52,0,0,0,5.07,8.53,2.68,2.68,0,0,1,.13,3.39l-2.45,3.29,5.38,4,2.46-3.27a2.68,2.68,0,0,1,2.16-1.09,2.89,2.89,0,0,1,1.14.25A26.65,26.65,0,0,0,67,260.28a2.72,2.72,0,0,1,2.5,2.31l.57,4.06,6.67-1-.59-4.06a2.73,2.73,0,0,1,1.75-2.92,26.21,26.21,0,0,0,8.53-5.06,2.7,2.7,0,0,1,3.4-.13L93.08,256l4-5.39-3.29-2.46a2.68,2.68,0,0,1-.82-3.3,26.75,26.75,0,0,0,2.46-9.6,2.69,2.69,0,0,1,2.31-2.5l4-.58-1-6.66ZM71.43,252.68a20.07,20.07,0,0,1-2.77.2,19.4,19.4,0,1,1,2.77-.2Zm-2.74-33.16a15.06,15.06,0,0,0-2,.14,14,14,0,1,0,2-.14Zm26.77,15.71a2.69,2.69,0,0,1,2.31-2.5l4-.58-1-6.66-4,.58a2.71,2.71,0,0,1-2.92-1.75,26.41,26.41,0,0,0-5.06-8.52,2.71,2.71,0,0,1-.14-3.4l2.2-3,.26-.34-.65-.48-4.74-3.55-2.45,3.28a2.71,2.71,0,0,1-3.31.83,26.6,26.6,0,0,0-9.59-2.46,2.72,2.72,0,0,1-2.51-2.31l-.58-4.06-6.66,1,.58,4.05a2.71,2.71,0,0,1-1.75,2.93A26.6,26.6,0,0,0,51,213.36a2.68,2.68,0,0,1-3.39.13L44.29,211l-4,5.39,3.29,2.46a2.7,2.7,0,0,1,.83,3.3,26.55,26.55,0,0,0-2.46,9.6,2.7,2.7,0,0,1-2.31,2.5l-4.05.59,1,6.65,4.06-.57a2.67,2.67,0,0,1,2.91,1.74,26.52,26.52,0,0,0,5.07,8.53,2.68,2.68,0,0,1,.13,3.39l-2.45,3.29,5.38,4,2.46-3.27a2.68,2.68,0,0,1,2.16-1.09,2.89,2.89,0,0,1,1.14.25A26.65,26.65,0,0,0,67,260.28a2.72,2.72,0,0,1,2.5,2.31l.57,4.06,6.67-1-.59-4.06a2.73,2.73,0,0,1,1.75-2.92,26.21,26.21,0,0,0,8.53-5.06,2.7,2.7,0,0,1,3.4-.13L93.08,256l4-5.39-3.29-2.46a2.68,2.68,0,0,1-.82-3.3A26.75,26.75,0,0,0,95.46,235.23Zm-24,17.45a20.07,20.07,0,0,1-2.77.2,19.4,19.4,0,1,1,2.77-.2Zm-2.74-33.16a15.06,15.06,0,0,0-2,.14,14,14,0,1,0,2-.14Zm70.59,47.68a13.95,13.95,0,0,0-10.48,2.17,14,14,0,1,0,10.48-2.17Zm0,0a13.95,13.95,0,0,0-10.48,2.17,14,14,0,1,0,10.48-2.17ZM165.68,283a2.67,2.67,0,0,1-2.19-2.59,26.8,26.8,0,0,0-2-9.71,2.7,2.7,0,0,1,1-3.26l3.39-2.31-.57-.84-3.21-4.73-3.39,2.32a2.7,2.7,0,0,1-3.39-.3,26.59,26.59,0,0,0-8.28-5.45,2.7,2.7,0,0,1-1.62-3l.78-4-6.62-1.26-.77,4a2.69,2.69,0,0,1-2.6,2.19c-.81,0-1.62.07-2.43.15a27.29,27.29,0,0,0-7.28,1.87,2.68,2.68,0,0,1-3.25-1l-2.31-3.4-5.57,3.78,2.31,3.4a2.7,2.7,0,0,1-.29,3.39,26.74,26.74,0,0,0-5.46,8.28,2.68,2.68,0,0,1-3,1.61l-4-.76-1.26,6.61,4,.76a2.7,2.7,0,0,1,2.19,2.61,26.73,26.73,0,0,0,2,9.71,2.72,2.72,0,0,1-1,3.26l-3.39,2.3,3.78,5.57,3.39-2.31a2.69,2.69,0,0,1,3.39.29,26.59,26.59,0,0,0,8.28,5.45,2.68,2.68,0,0,1,1.62,3l-.77,4,6.61,1.26.78-4a2.67,2.67,0,0,1,2.59-2.18,26.66,26.66,0,0,0,9.71-2,2.7,2.7,0,0,1,3.25,1l2.31,3.4,5.57-3.78-2.31-3.4a2.69,2.69,0,0,1,.29-3.38,26.72,26.72,0,0,0,5.46-8.29,2.67,2.67,0,0,1,3-1.61l4,.76,1.26-6.61Zm-10,1.53a19.41,19.41,0,0,1-19,15.74A19.65,19.65,0,0,1,133,300a19.37,19.37,0,1,1,22.66-15.4ZM139.28,267.2a13.95,13.95,0,0,0-10.48,2.17,14,14,0,1,0,10.48-2.17Zm0,0a13.95,13.95,0,0,0-10.48,2.17,14,14,0,1,0,10.48-2.17Zm0,0a13.95,13.95,0,0,0-10.48,2.17,14,14,0,1,0,10.48-2.17ZM165.68,283a2.67,2.67,0,0,1-2.19-2.59,26.8,26.8,0,0,0-2-9.71,2.7,2.7,0,0,1,1-3.26l3.39-2.31-.57-.84-3.21-4.73-3.39,2.32a2.7,2.7,0,0,1-3.39-.3,26.59,26.59,0,0,0-8.28-5.45,2.7,2.7,0,0,1-1.62-3l.78-4-6.62-1.26-.77,4a2.69,2.69,0,0,1-2.6,2.19c-.81,0-1.62.07-2.43.15a27.29,27.29,0,0,0-7.28,1.87,2.68,2.68,0,0,1-3.25-1l-2.31-3.4-5.57,3.78,2.31,3.4a2.7,2.7,0,0,1-.29,3.39,26.74,26.74,0,0,0-5.46,8.28,2.68,2.68,0,0,1-3,1.61l-4-.76-1.26,6.61,4,.76a2.7,2.7,0,0,1,2.19,2.61,26.73,26.73,0,0,0,2,9.71,2.72,2.72,0,0,1-1,3.26l-3.39,2.3,3.78,5.57,3.39-2.31a2.69,2.69,0,0,1,3.39.29,26.59,26.59,0,0,0,8.28,5.45,2.68,2.68,0,0,1,1.62,3l-.77,4,6.61,1.26.78-4a2.67,2.67,0,0,1,2.59-2.18,26.66,26.66,0,0,0,9.71-2,2.7,2.7,0,0,1,3.25,1l2.31,3.4,5.57-3.78-2.31-3.4a2.69,2.69,0,0,1,.29-3.38,26.72,26.72,0,0,0,5.46-8.29,2.67,2.67,0,0,1,3-1.61l4,.76,1.26-6.61Zm-10,1.53a19.41,19.41,0,0,1-19,15.74A19.65,19.65,0,0,1,133,300a19.37,19.37,0,1,1,22.66-15.4ZM139.28,267.2a13.95,13.95,0,0,0-10.48,2.17,14,14,0,1,0,10.48-2.17Zm0,0a13.95,13.95,0,0,0-10.48,2.17,14,14,0,1,0,10.48-2.17Zm0,0a13.95,13.95,0,0,0-10.48,2.17,14,14,0,1,0,10.48-2.17Zm-43.82-32a2.69,2.69,0,0,1,2.31-2.5l4-.58-1-6.66-4,.58a2.71,2.71,0,0,1-2.92-1.75,26.41,26.41,0,0,0-5.06-8.52,2.71,2.71,0,0,1-.14-3.4l2.2-3,.26-.34-.65-.48-4.74-3.55-2.45,3.28a2.71,2.71,0,0,1-3.31.83,26.6,26.6,0,0,0-9.59-2.46,2.72,2.72,0,0,1-2.51-2.31l-.58-4.06-6.66,1,.58,4.05a2.71,2.71,0,0,1-1.75,2.93A26.6,26.6,0,0,0,51,213.36a2.68,2.68,0,0,1-3.39.13L44.29,211l-4,5.39,3.29,2.46a2.7,2.7,0,0,1,.83,3.3,26.55,26.55,0,0,0-2.46,9.6,2.7,2.7,0,0,1-2.31,2.5l-4.05.59,1,6.65,4.06-.57a2.67,2.67,0,0,1,2.91,1.74,26.52,26.52,0,0,0,5.07,8.53,2.68,2.68,0,0,1,.13,3.39l-2.45,3.29,5.38,4,2.46-3.27a2.68,2.68,0,0,1,2.16-1.09,2.89,2.89,0,0,1,1.14.25A26.65,26.65,0,0,0,67,260.28a2.72,2.72,0,0,1,2.5,2.31l.57,4.06,6.67-1-.59-4.06a2.73,2.73,0,0,1,1.75-2.92,26.21,26.21,0,0,0,8.53-5.06,2.7,2.7,0,0,1,3.4-.13L93.08,256l4-5.39-3.29-2.46a2.68,2.68,0,0,1-.82-3.3A26.75,26.75,0,0,0,95.46,235.23Zm-24,17.45a20.07,20.07,0,0,1-2.77.2,19.4,19.4,0,1,1,2.77-.2Zm-2.74-33.16a15.06,15.06,0,0,0-2,.14,14,14,0,1,0,2-.14Zm70.59,47.68a13.95,13.95,0,0,0-10.48,2.17,14,14,0,1,0,10.48-2.17Zm22.78-7.6-3.39,2.32a2.7,2.7,0,0,1-3.39-.3,26.59,26.59,0,0,0-8.28-5.45,2.7,2.7,0,0,1-1.62-3l.78-4-6.62-1.26-.77,4a2.69,2.69,0,0,1-2.6,2.19c-.81,0-1.62.07-2.43.15a36.39,36.39,0,0,0,4.72,3.27c7,4,16.44,6.44,26.81,6.81Zm-22.78,7.6a13.95,13.95,0,0,0-10.48,2.17,14,14,0,1,0,10.48-2.17Z"/></g><path class="cls-3" d="M119.34,242.45a2.09,2.09,0,0,0,1.53,1Zm-.51-1.77a1.55,1.55,0,0,0,.51,1.77Zm1-10.21v-.24m-1,10.45v-1m2.28-11.22a2.91,2.91,0,0,0-1.26,1.79m3.3-2.57a2.93,2.93,0,0,0-2,.78m10.46.25-8.42-1m3.33,16.6-5.61-.79m41.19,16.13-3.39,2.32a2.7,2.7,0,0,1-3.39-.3,26.59,26.59,0,0,0-8.28-5.45,2.7,2.7,0,0,1-1.62-3l.78-4-6.62-1.26-.77,4a2.69,2.69,0,0,1-2.6,2.19c-.81,0-1.62.07-2.43.15a36.39,36.39,0,0,0,4.72,3.27c7,4,16.44,6.44,26.81,6.81Zm-71.56-51c.14.28.27.55.39.82l.26-.34Z"/></g></g></svg>