<svg xmlns="http://www.w3.org/2000/svg" xmlns:xlink="http://www.w3.org/1999/xlink" viewBox="0 0 332.45 332.45"><defs><style>.cls-1{fill:url(#linear-gradient);}.cls-2{fill:url(#linear-gradient-2);}.cls-3{fill:url(#linear-gradient-3);}.cls-4{fill:url(#linear-gradient-4);}.cls-5{fill:url(#linear-gradient-5);}.cls-6{fill:url(#linear-gradient-6);}.cls-7{fill:url(#linear-gradient-7);}.cls-8{fill:url(#linear-gradient-8);}.cls-9{fill:url(#linear-gradient-9);}</style><linearGradient id="linear-gradient" x1="93.93" y1="196.79" x2="94.56" y2="243.96" gradientUnits="userSpaceOnUse"><stop offset="0" stop-color="#61bf89"/><stop offset="0.05" stop-color="#4ca588"/><stop offset="0.12" stop-color="#368a87"/><stop offset="0.2" stop-color="#247486"/><stop offset="0.29" stop-color="#166386"/><stop offset="0.4" stop-color="#0c5885"/><stop offset="0.56" stop-color="#075185"/><stop offset="1" stop-color="#054f85"/></linearGradient><linearGradient id="linear-gradient-2" x1="108.35" y1="162.84" x2="108.66" y2="186.74" xlink:href="#linear-gradient"/><linearGradient id="linear-gradient-3" x1="94.08" y1="100.24" x2="94.4" y2="244.9" xlink:href="#linear-gradient"/><linearGradient id="linear-gradient-4" x1="171.11" y1="199.3" x2="171.11" y2="243.65" xlink:href="#linear-gradient"/><linearGradient id="linear-gradient-5" x1="169.43" y1="70.93" x2="174.4" y2="233.68" xlink:href="#linear-gradient"/><linearGradient id="linear-gradient-6" x1="250.14" y1="198.99" x2="250.14" y2="242.39" xlink:href="#linear-gradient"/><linearGradient id="linear-gradient-7" x1="235.88" y1="164.08" x2="235.88" y2="187.04" xlink:href="#linear-gradient"/><linearGradient id="linear-gradient-8" x1="251.19" y1="143.26" x2="249.83" y2="212.24" xlink:href="#linear-gradient"/><linearGradient id="linear-gradient-9" x1="160.15" y1="-42.5" x2="169.83" y2="289.81" xlink:href="#linear-gradient"/></defs><title>عيادات للبيع ولإيجار</title><g id="Layer_2" data-name="Layer 2"><g id="واجهة_الخدمات" data-name="واجهة الخدمات"><rect class="cls-1" x="87.27" y="203.27" width="13.98" height="36.52"/><rect class="cls-2" x="101.64" y="168.89" width="13.76" height="13.76"/><path class="cls-3" d="M73.11,138.13v13.74H86.87V138.13Zm28.53,0v13.74H115.4V138.13Zm0,0v13.74H115.4V138.13Zm-28.53,0v13.74H86.87V138.13Zm0,0v13.74H86.87V138.13Zm0,30.76v13.75H86.87V168.89Zm28.53-30.76v13.74H115.4V138.13Zm0,0v13.74H115.4V138.13Zm-28.53,0v13.74H86.87V138.13Zm0,30.76v13.75H86.87V168.89ZM59.75,118.43V238.11H82.23V200.75a2.53,2.53,0,0,1,2.51-2.52h19a2.53,2.53,0,0,1,2.52,2.52v37.36h22.47V118.43ZM91.9,185.16a2.51,2.51,0,0,1-2.51,2.51H70.59a2.51,2.51,0,0,1-2.51-2.51V166.37a2.51,2.51,0,0,1,2.51-2.52h18.8a2.51,2.51,0,0,1,2.51,2.52Zm0-30.76a2.51,2.51,0,0,1-2.51,2.51H70.59a2.51,2.51,0,0,1-2.51-2.51V135.6a2.51,2.51,0,0,1,2.51-2.51h18.8a2.51,2.51,0,0,1,2.51,2.51Zm28.54,30.76a2.52,2.52,0,0,1-2.53,2.51H99.13a2.51,2.51,0,0,1-2.52-2.51V166.37a2.52,2.52,0,0,1,2.52-2.52h18.78a2.53,2.53,0,0,1,2.53,2.52Zm0-30.76a2.52,2.52,0,0,1-2.53,2.51H99.13a2.51,2.51,0,0,1-2.52-2.51V135.6a2.51,2.51,0,0,1,2.52-2.51h18.78a2.52,2.52,0,0,1,2.53,2.51Zm-18.8-2.53H115.4V138.13H101.64ZM73.11,182.64H86.87V168.89H73.11Zm0-30.77H86.87V138.13H73.11Zm0,17v13.75H86.87V168.89Zm0-30.76v13.74H86.87V138.13Zm28.53,0v13.74H115.4V138.13Zm0,0v13.74H115.4V138.13ZM73.11,168.89v13.75H86.87V168.89Zm0-30.76v13.74H86.87V138.13Zm28.53,0v13.74H115.4V138.13Zm0,0v13.74H115.4V138.13Z"/><rect class="cls-4" x="164.11" y="203.27" width="13.99" height="36.52"/><path class="cls-5" d="M179.89,168.89v13.75h13.76V168.89Zm0,0v13.75h13.76V168.89Zm-28.52,0v13.75h13.75V168.89Zm28.52,0v13.75h13.76V168.89Zm0,0v13.75h13.76V168.89Zm-28.52,0v13.75h13.75V168.89Zm0,0v13.75h13.75V168.89Zm28.52,0v13.75h13.76V168.89Zm0,0v13.75h13.76V168.89Zm-28.52,0v13.75h13.75V168.89Zm0,0v13.75h13.75V168.89Zm28.52,0v13.75h13.76V168.89Zm0,0v13.75h13.76V168.89Zm-28.52,0v13.75h13.75V168.89ZM137.15,86.41v151.7h21.93V200.75a2.53,2.53,0,0,1,2.52-2.52h19a2.53,2.53,0,0,1,2.52,2.52v37.36h24.11v-87.6a4.4,4.4,0,0,1,.05-.51V86.41Zm11.3,27.76h17.77V95.67h11.66v18.5h17.76v12.31H177.88V145H166.22V126.48H148.45Zm21.71,71a2.51,2.51,0,0,1-2.52,2.51H148.85a2.51,2.51,0,0,1-2.52-2.51V166.37a2.52,2.52,0,0,1,2.52-2.52h18.79a2.52,2.52,0,0,1,2.52,2.52Zm28.53,0a2.51,2.51,0,0,1-2.51,2.51h-18.8a2.51,2.51,0,0,1-2.51-2.51V166.37a2.51,2.51,0,0,1,2.51-2.52h18.8a2.51,2.51,0,0,1,2.51,2.52Zm-18.8-2.52h13.76V168.89H179.89Zm-28.52,0h13.75V168.89H151.37Zm0-13.75v13.75h13.75V168.89Zm28.52,0v13.75h13.76V168.89Zm0,0v13.75h13.76V168.89Zm-28.52,0v13.75h13.75V168.89Zm0,0v13.75h13.75V168.89Zm28.52,0v13.75h13.76V168.89Zm0,0v13.75h13.76V168.89Zm-28.52,0v13.75h13.75V168.89Zm0,0v13.75h13.75V168.89Zm28.52,0v13.75h13.76V168.89Zm0,0v13.75h13.76V168.89Zm-28.52,0v13.75h13.75V168.89Z"/><rect class="cls-6" x="243.15" y="203.27" width="13.98" height="36.52"/><rect class="cls-7" x="229" y="168.89" width="13.76" height="13.76"/><path class="cls-8" d="M215.65,154.71v83.4h22.46V200.75a2.54,2.54,0,0,1,2.53-2.52h19a2.52,2.52,0,0,1,2.51,2.52v37.36h22.47v-83.4Zm32.14,30.45a2.51,2.51,0,0,1-2.52,2.51H226.48a2.51,2.51,0,0,1-2.52-2.51V166.37a2.52,2.52,0,0,1,2.52-2.52h18.79a2.52,2.52,0,0,1,2.52,2.52Zm28.53,0a2.52,2.52,0,0,1-2.52,2.51H255a2.51,2.51,0,0,1-2.52-2.51V166.37a2.52,2.52,0,0,1,2.52-2.52H273.8a2.53,2.53,0,0,1,2.52,2.52Zm-18.79-2.52h13.75V168.89H257.53Z"/><path class="cls-9" d="M273,0H59.48A59.48,59.48,0,0,0,0,59.48V273a59.47,59.47,0,0,0,59.48,59.47H273A59.46,59.46,0,0,0,332.45,273V59.48A59.47,59.47,0,0,0,273,0Zm20,242.31a4.2,4.2,0,0,1-4.2,4.2H55.57a4.2,4.2,0,0,1-4.2-4.2V114.23a4.2,4.2,0,0,1,4.2-4.2h73.18V82.21A4.2,4.2,0,0,1,133,78H211.5a4.2,4.2,0,0,1,4.2,4.2v64.1h73.13a4.2,4.2,0,0,1,4.2,4.2Z"/></g></g></svg>