<svg xmlns="http://www.w3.org/2000/svg" xmlns:xlink="http://www.w3.org/1999/xlink" viewBox="0 0 334.61 334.61"><defs><style>.cls-1{fill:url(#linear-gradient);}.cls-2{fill:url(#linear-gradient-2);}.cls-3{fill:url(#linear-gradient-3);}.cls-4{fill:url(#linear-gradient-4);}.cls-5{fill:url(#linear-gradient-5);}</style><linearGradient id="linear-gradient" x1="176.41" y1="90.29" x2="177.3" y2="124.82" gradientUnits="userSpaceOnUse"><stop offset="0" stop-color="#61bf89"/><stop offset="0.05" stop-color="#4ca588"/><stop offset="0.12" stop-color="#368a87"/><stop offset="0.2" stop-color="#247486"/><stop offset="0.29" stop-color="#166386"/><stop offset="0.4" stop-color="#0c5885"/><stop offset="0.56" stop-color="#075185"/><stop offset="1" stop-color="#054f85"/></linearGradient><linearGradient id="linear-gradient-2" x1="176.94" y1="68.92" x2="176.52" y2="150.06" xlink:href="#linear-gradient"/><linearGradient id="linear-gradient-3" x1="178.95" y1="135.22" x2="178.54" y2="201.15" xlink:href="#linear-gradient"/><linearGradient id="linear-gradient-4" x1="176.04" y1="77.38" x2="177.33" y2="262.26" xlink:href="#linear-gradient"/><linearGradient id="linear-gradient-5" x1="170.35" y1="-45.91" x2="165.28" y2="308.61" xlink:href="#linear-gradient"/></defs><title>فرص عمل</title><g id="Layer_2" data-name="Layer 2"><g id="واجهة_الخدمات" data-name="واجهة الخدمات"><path class="cls-1" d="M188.07,97.93c3.23,0,6,1.95,6,4.26v4H159.49v-4c0-2.31,2.74-4.26,6-4.26Z"/><path class="cls-2" d="M150,106.21H136.2V97c0-7.61,7.76-13.82,17.3-13.82H200c9.53,0,17.3,6.21,17.3,13.82v9.26H203.5v-4c0-7.57-6.92-13.73-15.43-13.73H165.46C157,88.46,150,94.62,150,102.19Z"/><path class="cls-3" d="M190.71,172.64h20.92v18.43H190.71a2.84,2.84,0,0,0-2.84,2.84v20.91H169.45V193.91a2.84,2.84,0,0,0-2.84-2.84H145.7V172.64h20.91a2.84,2.84,0,0,0,2.84-2.85v-20.9h18.42v20.9A2.85,2.85,0,0,0,190.71,172.64Z"/><path class="cls-4" d="M255.68,115.66H97.86A13.55,13.55,0,0,0,84.33,129.2V234.5A13.54,13.54,0,0,0,97.86,248H255.68a13.54,13.54,0,0,0,13.53-13.53V129.2A13.55,13.55,0,0,0,255.68,115.66ZM217.3,193.91a2.84,2.84,0,0,1-2.84,2.84h-20.9v20.9a2.86,2.86,0,0,1-2.85,2.85h-24.1a2.85,2.85,0,0,1-2.84-2.85v-20.9H142.86a2.85,2.85,0,0,1-2.85-2.84V169.79a2.84,2.84,0,0,1,2.85-2.83h20.91V146.05a2.84,2.84,0,0,1,2.84-2.84h24.1a2.85,2.85,0,0,1,2.85,2.84V167h20.9a2.84,2.84,0,0,1,2.84,2.83Z"/><path class="cls-5" d="M274.74,0H59.86A59.87,59.87,0,0,0,0,59.86V274.75a59.87,59.87,0,0,0,59.86,59.86H274.74a59.87,59.87,0,0,0,59.87-59.86V59.86A59.87,59.87,0,0,0,274.74,0Zm3.93,234.5a23,23,0,0,1-23,23H97.86a23,23,0,0,1-23-23V129.2a23,23,0,0,1,23-23h28.88V97c0-12.83,12-23.28,26.76-23.28H200c14.76,0,26.76,10.45,26.76,23.28v9.26h28.88a23,23,0,0,1,23,23Z"/></g></g></svg>