<svg xmlns="http://www.w3.org/2000/svg" xmlns:xlink="http://www.w3.org/1999/xlink" viewBox="0 0 334.61 334.61"><defs><style>.cls-1{fill:url(#linear-gradient);}.cls-2{fill:#100d0e;}</style><linearGradient id="linear-gradient" x1="159.95" y1="-47.33" x2="172.61" y2="322.38" gradientUnits="userSpaceOnUse"><stop offset="0" stop-color="#61bf89"/><stop offset="0.05" stop-color="#4ca588"/><stop offset="0.12" stop-color="#368a87"/><stop offset="0.2" stop-color="#247486"/><stop offset="0.29" stop-color="#166386"/><stop offset="0.4" stop-color="#0c5885"/><stop offset="0.56" stop-color="#075185"/><stop offset="1" stop-color="#054f85"/></linearGradient></defs><title>كهرباء - تكييف وتبريد</title><g id="Layer_2" data-name="Layer 2"><g id="واجهة_الخدمات" data-name="واجهة الخدمات"><path class="cls-1" d="M274.74,0H59.86A59.87,59.87,0,0,0,0,59.86V274.75a59.87,59.87,0,0,0,59.86,59.86H274.74a59.87,59.87,0,0,0,59.87-59.86V59.86A59.87,59.87,0,0,0,274.74,0ZM135.64,252.13c-31.9-13.6-52.41-37.1-58.35-71.39C68,126.89,102.61,79.32,156.52,70.42c4.18-.69,8.44-.8,12.66-1.18,0,.07,0,.13,0,.19,1.15,0,2.29-.08,3.43,0,3,.25,8.24-.23,8.71,1,1.11,3-2.82,5.29-4.05,8.21s-3.68,2.1-5.86,2.08A83.46,83.46,0,0,0,89.78,143c-10.38,40,9.78,81,47.9,97.59,1.35.58,3.78.49,3.54,2.69a38.71,38.71,0,0,1-2.1,9.49C138.66,254,136.72,252.58,135.64,252.13Zm4,23.41c1.15-6.11,2.27-12.22,3.47-18.32,4.69-23.85,9.33-47.72,14.21-71.53.83-4.11.09-5.18-4.24-5.06-11.83.32-23.69.11-36.45.11,27.89-43.19,55.3-85.62,82.71-128l1.39.62c-1.42,7.43-2.81,14.87-4.28,22.29-4.38,22.25-8.71,44.5-13.26,66.72-.81,4-.28,5.26,4.17,5.12,11.85-.34,23.72-.12,36.5-.12-28,43.36-55.53,86-83.08,128.63Zm44.27-17.86a52.82,52.82,0,0,1-15.58.65c-.33-.72-.68-.82-1.06,0h-9.63c2.45-3.88,4.35-6.84,6.2-9.82,1.26-2,3.22-1.17,4.88-1.16,41,.24,75.13-27.5,83.22-67.64,7.66-38-12.9-76.49-49.22-92.29-1.3-.57-3.73-.42-3.4-2.76a49.61,49.61,0,0,1,2.13-9.47c.35-1,2.08.23,3.07.65,32.17,13.53,52.77,37.13,58.7,71.61C272.53,201.3,237.84,248.81,183.93,257.68Z"/><path class="cls-2" d="M168.35,258.33l-1.06,0C167.67,257.51,168,257.61,168.35,258.33Z"/></g></g></svg>