<svg xmlns="http://www.w3.org/2000/svg" xmlns:xlink="http://www.w3.org/1999/xlink" viewBox="0 0 332.63 332.62"><defs><style>.cls-1{fill:url(#linear-gradient);}.cls-2{fill:url(#linear-gradient-2);}</style><linearGradient id="linear-gradient" x1="216.71" y1="84.81" x2="217.66" y2="150.89" gradientUnits="userSpaceOnUse"><stop offset="0" stop-color="#61bf89"/><stop offset="0.05" stop-color="#4ca588"/><stop offset="0.12" stop-color="#368a87"/><stop offset="0.2" stop-color="#247486"/><stop offset="0.29" stop-color="#166386"/><stop offset="0.4" stop-color="#0c5885"/><stop offset="0.56" stop-color="#075185"/><stop offset="1" stop-color="#054f85"/></linearGradient><linearGradient id="linear-gradient-2" x1="161.91" y1="-47" x2="170.41" y2="364.57" xlink:href="#linear-gradient"/></defs><title>مستهلكات طبية</title><g id="Layer_2" data-name="Layer 2"><g id="واجهة_الخدمات" data-name="واجهة الخدمات"><g id="مستهلكات_طبية" data-name="مستهلكات طبية"><path class="cls-1" d="M236,117.91a1.47,1.47,0,0,1,1.35-1.36h3.38a16,16,0,0,0-1.34-6.75l-3,1.35H236a1.22,1.22,0,0,1-1-.34c0-.68,0-1.35.68-1.35l3-1.37a32.07,32.07,0,0,0-3.71-5.74l-2.37,2.36a1.24,1.24,0,0,1-1,.34,1.28,1.28,0,0,1-1-.34c-.67-.68-.67-1.69,0-2l2.38-2.37a21.35,21.35,0,0,0-5.76-3.72l-1.36,3a.72.72,0,0,1-.66.67h-.36c-.67-.33-1-1-.67-1.35l1.35-3a22.22,22.22,0,0,0-6.77-1.7v3.39A1.59,1.59,0,0,1,217,99.3a1.55,1.55,0,0,1-1.35-1.69V94.22a37.57,37.57,0,0,0-6.41,1.35l1,3.39a.65.65,0,0,1-.34,1l-.35.33c-.32,0-.66-.33-1-.67l-1.35-3a15.37,15.37,0,0,0-5.76,3.72l2.36,2.37c.67.34.67,1.35,0,2a1.22,1.22,0,0,1-1,.34,1.26,1.26,0,0,1-1-.34l-2.36-2.36a31.23,31.23,0,0,0-3.73,5.41l3.05,1.35a1.36,1.36,0,0,1,.68,1.36c-.34.34-.68.68-1,.68h-.33L195,109.8a15.42,15.42,0,0,0-1.35,6.75h3.38a1.47,1.47,0,0,1,1.36,1.36,1.56,1.56,0,0,1-1.36,1.7h-3.38A15.06,15.06,0,0,0,195,126l3.06-1.35a1.36,1.36,0,0,1,1.35.67,1.34,1.34,0,0,1-.68,1.35l-3.05,1a22.89,22.89,0,0,0,3.73,6.1l2.36-2.71a2.15,2.15,0,0,1,2,0,1.65,1.65,0,0,1,0,2.37l-2.36,2.38a41.44,41.44,0,0,0,5.09,3.37v-.33l2-3a1.53,1.53,0,0,1,1-.48.54.54,0,0,1,.37.13.84.84,0,0,1,.34,1.36l-2,3A20.09,20.09,0,0,0,216,141.6v-3.72a1.35,1.35,0,1,1,2.7,0v3.72a18,18,0,0,0,8.12-2l-2-2.71c-.32-.34,0-1,.36-1.36.66,0,1,0,1.35.35l2,3a53.36,53.36,0,0,0,4.41-3l-2.38-2.38a1.65,1.65,0,0,1,0-2.37,2.14,2.14,0,0,1,2,0l2.37,2.71a32.23,32.23,0,0,0,3.71-5.76l-3-1.35c-.68-.33-1-.67-.68-1.35a1,1,0,0,1,1.36-.34l3,1.36a24.27,24.27,0,0,0,1.34-6.77h-3.38A1.56,1.56,0,0,1,236,117.91Zm-19,7.45a4.62,4.62,0,0,1-4.73-4.74,4.57,4.57,0,0,1,2.7-4.4l2.38-13.54,2,13.54a5.27,5.27,0,0,1,2.7,4.4A4.91,4.91,0,0,1,217,125.36Z"/><path class="cls-2" d="M269.26,0H63.38A63.38,63.38,0,0,0,0,63.37V269.25a63.38,63.38,0,0,0,63.38,63.37H269.26a63.37,63.37,0,0,0,63.37-63.37V63.37A63.37,63.37,0,0,0,269.26,0ZM170,69.86a18.79,18.79,0,0,1,12.2,17.6v131.3A19.14,19.14,0,0,1,170,236.37Zm-24.37-21a5.46,5.46,0,0,1,2-4.4,5.45,5.45,0,0,1,4.41-2,4.8,4.8,0,0,1,4,2,5.47,5.47,0,0,1,2,4.4V246.52a6,6,0,0,1-2,4.4,5.58,5.58,0,0,1-4,1.7,6.44,6.44,0,0,1-4.41-1.7,6,6,0,0,1-2-4.4ZM294.2,211.67c-3.41,5.74-8.13,9.8-13.55,11.5v4.4h-4.4v68.36h-196V241.45H76.56v-3.72a19.33,19.33,0,0,1-18.61-19V87.46a19.15,19.15,0,0,1,19-18.95h56.84V237.73h-29.1v3.72h-4v31.81H215V161.57h-4.72v-7.78h-.34a2,2,0,0,1-2-2V143a26.51,26.51,0,0,1-17.28-25c0-14.55,11.84-26.73,26.39-26.73a26.76,26.76,0,0,1,9.5,51.77v8.8a2,2,0,0,1-2,2h-.35v7.78h-5.06V277.32H96.55V241.45H92.49v-3.72H88.76v3.72H84v50.42H272.19v-64.3h-3.74v-4.4c-5.41-1.7-10.14-5.76-13.52-11.5-3.73-6.1-5.76-13.89-5.76-22.34,0-9.48,2.71-18.28,7.12-24.71,4.72-6.43,11.17-10.5,18.27-10.5s13.53,4.07,18.27,10.5c4.41,6.43,7.11,15.23,7.11,24.71A43.15,43.15,0,0,1,294.2,211.67Z"/></g></g></g></svg>