<svg xmlns="http://www.w3.org/2000/svg" xmlns:xlink="http://www.w3.org/1999/xlink" viewBox="0 0 422.98 422.98"><defs><style>.cls-1{fill:url(#linear-gradient);}.cls-2{fill:url(#linear-gradient-2);}.cls-3{fill:url(#linear-gradient-3);}.cls-4,.cls-5{fill:#727270;}.cls-5,.cls-7{fill-rule:evenodd;}.cls-6{fill:url(#linear-gradient-4);}.cls-7{fill:url(#linear-gradient-5);}</style><linearGradient id="linear-gradient" x1="172.34" y1="118.74" x2="281.3" y2="118.74" gradientUnits="userSpaceOnUse"><stop offset="0" stop-color="#054f85"/><stop offset="1" stop-color="#61bf89"/></linearGradient><linearGradient id="linear-gradient-2" x1="167.82" y1="237.17" x2="290.31" y2="237.17" xlink:href="#linear-gradient"/><linearGradient id="linear-gradient-3" x1="211.49" y1="-115.82" x2="211.49" y2="476.58" gradientUnits="userSpaceOnUse"><stop offset="0" stop-color="#61bf89"/><stop offset="0.06" stop-color="#56b189"/><stop offset="0.25" stop-color="#398e87"/><stop offset="0.43" stop-color="#227286"/><stop offset="0.62" stop-color="#125f86"/><stop offset="0.81" stop-color="#085385"/><stop offset="1" stop-color="#054f85"/></linearGradient><linearGradient id="linear-gradient-4" x1="226.82" y1="80.48" x2="226.82" y2="153.66" xlink:href="#linear-gradient-3"/><linearGradient id="linear-gradient-5" x1="227.81" y1="152.57" x2="230.14" y2="309.38" gradientUnits="userSpaceOnUse"><stop offset="0" stop-color="#61bf89"/><stop offset="0.11" stop-color="#4ba488"/><stop offset="0.26" stop-color="#328587"/><stop offset="0.42" stop-color="#1e6d86"/><stop offset="0.59" stop-color="#105c85"/><stop offset="0.77" stop-color="#085285"/><stop offset="1" stop-color="#054f85"/></linearGradient></defs><title>معدات جراحية</title><g id="Layer_2" data-name="Layer 2"><g id="واجهة_مستهلكات_طبية" data-name="واجهة مستهلكات طبية"><g id="معدات_جراحية" data-name="معدات جراحية"><rect class="cls-1" x="172.34" y="106.6" width="108.96" height="24.28"/><path class="cls-2" d="M167.82,256.08V218.26a6.55,6.55,0,0,1,6.77-6.29h24.3a2.82,2.82,0,0,0,3.16-2.71v-23c0-3.15,3.16-5.85,6.76-5.85h40.52c4.07,0,6.77,2.7,6.77,5.85v22.5s.44,3.18,3.14,3.18h24.31a6.54,6.54,0,0,1,6.76,6.29v37.82a6.54,6.54,0,0,1-6.76,6.3H259.69s-3.59.47-3.59,3.16V287.6c0,3.6-2.7,6.3-6.77,6.3H208.81a6.55,6.55,0,0,1-6.76-6.3V265.08c0-3.14-3.6-2.7-3.6-2.7H174.59A6.55,6.55,0,0,1,167.82,256.08Z"/><path class="cls-3" d="M368.12,0H54.88A54.86,54.86,0,0,0,0,54.87V368.12A54.86,54.86,0,0,0,54.88,423H368.12A54.86,54.86,0,0,0,423,368.12V54.87A54.86,54.86,0,0,0,368.12,0Zm-8.46,153.86c-.45,0-.9-.45-1.36-.45h-258a1.45,1.45,0,0,0-1.34,1.35V166c0,1.8,3.15,1.8,3.15,1.8H356.51c1.79,0,2.7-.43,3.15-1.33V289.85c0,6.75-6.3,12.62-13.52,12.62H112c-7.2,0-13.51-5.87-13.51-12.62V147.11c0-6.76,6.31-12.62,13.51-12.62h44.59v-41H297.06v41h49.08c7.22,0,13.52,5.86,13.52,12.62Z"/><rect class="cls-4" x="172.34" y="106.6" width="108.96" height="24.28"/><path class="cls-5" d="M290.31,218.26v37.82a6.54,6.54,0,0,1-6.76,6.3H259.69s-3.59.47-3.59,3.16V287.6c0,3.6-2.7,6.3-6.77,6.3H208.81a6.55,6.55,0,0,1-6.76-6.3V265.08c0-3.14-3.6-2.7-3.6-2.7H174.59a6.55,6.55,0,0,1-6.77-6.3V218.26a6.55,6.55,0,0,1,6.77-6.29h24.3a2.82,2.82,0,0,0,3.16-2.71v-23c0-3.15,3.16-5.85,6.76-5.85h40.52c4.07,0,6.77,2.7,6.77,5.85v22.5s.44,3.18,3.14,3.18h24.31A6.54,6.54,0,0,1,290.31,218.26Z"/><rect class="cls-6" x="172.34" y="106.6" width="108.96" height="24.28"/><path class="cls-7" d="M290.31,218.26v37.82a6.54,6.54,0,0,1-6.76,6.3H259.69s-3.59.47-3.59,3.16V287.6c0,3.6-2.7,6.3-6.77,6.3H208.81a6.55,6.55,0,0,1-6.76-6.3V265.08c0-3.14-3.6-2.7-3.6-2.7H174.59a6.55,6.55,0,0,1-6.77-6.3V218.26a6.55,6.55,0,0,1,6.77-6.29h24.3a2.82,2.82,0,0,0,3.16-2.71v-23c0-3.15,3.16-5.85,6.76-5.85h40.52c4.07,0,6.77,2.7,6.77,5.85v22.5s.44,3.18,3.14,3.18h24.31A6.54,6.54,0,0,1,290.31,218.26Z"/></g></g></g></svg>