<svg xmlns="http://www.w3.org/2000/svg" xmlns:xlink="http://www.w3.org/1999/xlink" viewBox="0 0 422.98 422.97"><defs><style>.cls-1{fill:url(#linear-gradient);}.cls-2{fill:url(#linear-gradient-2);}.cls-3{fill:url(#linear-gradient-3);}.cls-4{fill:url(#linear-gradient-4);}.cls-5{fill:url(#linear-gradient-5);}.cls-6{fill:url(#linear-gradient-6);}.cls-7{fill:url(#linear-gradient-7);}.cls-8{fill:url(#linear-gradient-8);}.cls-9{fill:#727270;}.cls-10,.cls-11,.cls-12,.cls-13,.cls-14,.cls-15,.cls-16,.cls-17,.cls-18,.cls-9{fill-rule:evenodd;}.cls-10{fill:#226d8a;opacity:0.1;}.cls-11{fill:#fff;}.cls-12{fill:url(#linear-gradient-9);}.cls-13{fill:url(#linear-gradient-10);}.cls-14{fill:url(#linear-gradient-11);}.cls-15{fill:url(#linear-gradient-12);}.cls-16{fill:url(#linear-gradient-13);}.cls-17{fill:url(#linear-gradient-14);}.cls-18{fill:url(#linear-gradient-15);}</style><linearGradient id="linear-gradient" x1="200.15" y1="207.78" x2="210.9" y2="207.78" gradientUnits="userSpaceOnUse"><stop offset="0" stop-color="#054f85"/><stop offset="1" stop-color="#61bf89"/></linearGradient><linearGradient id="linear-gradient-2" x1="216.63" y1="204.59" x2="230.09" y2="204.59" xlink:href="#linear-gradient"/><linearGradient id="linear-gradient-3" x1="212.25" y1="176.84" x2="232.1" y2="176.84" xlink:href="#linear-gradient"/><linearGradient id="linear-gradient-4" x1="228.74" y1="218.97" x2="243.21" y2="218.97" xlink:href="#linear-gradient"/><linearGradient id="linear-gradient-5" x1="236.14" y1="197.02" x2="243.21" y2="197.02" xlink:href="#linear-gradient"/><linearGradient id="linear-gradient-6" x1="237.49" y1="178.01" x2="248.25" y2="178.01" xlink:href="#linear-gradient"/><linearGradient id="linear-gradient-7" x1="142.03" y1="266.82" x2="311.07" y2="266.82" xlink:href="#linear-gradient"/><linearGradient id="linear-gradient-8" x1="220.64" y1="-83.76" x2="204.37" y2="441.27" gradientUnits="userSpaceOnUse"><stop offset="0" stop-color="#61bf89"/><stop offset="0.12" stop-color="#479f88"/><stop offset="0.26" stop-color="#2f8287"/><stop offset="0.41" stop-color="#1c6b86"/><stop offset="0.57" stop-color="#0f5b85"/><stop offset="0.75" stop-color="#075285"/><stop offset="1" stop-color="#054f85"/></linearGradient><linearGradient id="linear-gradient-9" x1="242.56" y1="155.76" x2="243.14" y2="197.28" gradientUnits="userSpaceOnUse"><stop offset="0" stop-color="#61bf89"/><stop offset="0.06" stop-color="#56b189"/><stop offset="0.25" stop-color="#398e87"/><stop offset="0.43" stop-color="#227286"/><stop offset="0.62" stop-color="#125f86"/><stop offset="0.81" stop-color="#085385"/><stop offset="1" stop-color="#054f85"/></linearGradient><linearGradient id="linear-gradient-10" x1="223.08" y1="150.16" x2="221.63" y2="193.14" xlink:href="#linear-gradient-9"/><linearGradient id="linear-gradient-11" x1="223.52" y1="189.99" x2="223.23" y2="216.71" xlink:href="#linear-gradient-9"/><linearGradient id="linear-gradient-12" x1="236.7" y1="199.76" x2="235.54" y2="230.83" xlink:href="#linear-gradient-9"/><linearGradient id="linear-gradient-13" x1="206.01" y1="191.44" x2="205.14" y2="221.06" xlink:href="#linear-gradient-9"/><linearGradient id="linear-gradient-14" x1="227.16" y1="224.46" x2="226.29" y2="308.09" gradientUnits="userSpaceOnUse"><stop offset="0" stop-color="#61bf89"/><stop offset="0.03" stop-color="#57b389"/><stop offset="0.13" stop-color="#3e9487"/><stop offset="0.25" stop-color="#297b87"/><stop offset="0.37" stop-color="#196786"/><stop offset="0.51" stop-color="#0e5985"/><stop offset="0.69" stop-color="#075185"/><stop offset="1" stop-color="#054f85"/></linearGradient><linearGradient id="linear-gradient-15" x1="239.67" y1="190.27" x2="239.67" y2="201.6" xlink:href="#linear-gradient-9"/></defs><title>معدات مخبرية</title><g id="Layer_2" data-name="Layer 2"><g id="واجهة_مستهلكات_طبية" data-name="واجهة مستهلكات طبية"><g id="معدات_مخبرية" data-name="معدات مخبرية"><path class="cls-1" d="M200.15,208c0-4.71,2.35-8.07,5.37-8.07s5.38,3.36,5.38,8.07c0,4.38-2.35,7.74-5.38,7.74S200.15,212.33,200.15,208Z"/><path class="cls-2" d="M230.09,204.58c0,5.73-3,10.1-6.74,10.1s-6.72-4.37-6.72-10.1c0-5.37,3-10.08,6.72-10.08S230.09,199.21,230.09,204.58Z"/><path class="cls-3" d="M212.25,177c0-8.41,4.38-15.13,9.75-15.13,5.73,0,10.1,6.72,10.1,15.13,0,8.08-4.37,14.8-10.1,14.8C216.63,191.8,212.25,185.08,212.25,177Z"/><path class="cls-4" d="M235.8,208.29c4,0,7.41,4.71,7.41,10.77,0,14.12-14.47,14.12-14.47,0C228.74,213,231.76,208.29,235.8,208.29Z"/><path class="cls-5" d="M236.14,196.86c0-2.7,1.67-5.06,3.71-5.06,1.67,0,3.36,2.36,3.36,5.06,0,3-1.69,5.38-3.36,5.38C237.81,202.24,236.14,199.88,236.14,196.86Z"/><path class="cls-6" d="M237.49,178c0-4.37,2.36-8.07,5.38-8.07s5.38,3.7,5.38,8.07-2.36,8.08-5.38,8.08S237.49,182.39,237.49,178Z"/><path class="cls-7" d="M308.8,273.55a20,20,0,0,1,0,18.5A12.05,12.05,0,0,1,298,298.44H154.73c-4.37,0-8.07-2.36-10.43-6.39a20,20,0,0,1,0-18.5l1-1.34c3-5.4,10.09-18.17,17.5-28.94,2-3,3.69-5.38,5.71-8.07h116c2,2.69,3.71,5,5.72,8.07,7.4,10.77,14.47,23.54,17.5,28.94Z"/><path class="cls-8" d="M368.12,0H54.88A54.86,54.86,0,0,0,0,54.87V368.11A54.86,54.86,0,0,0,54.88,423H368.12A54.86,54.86,0,0,0,423,368.11V54.87A54.86,54.86,0,0,0,368.12,0Zm-42.5,302.48c-4,6.72-10.43,10.43-17.83,10.43H145.31a19.61,19.61,0,0,1-17.83-10.43c-5.37-9.09-5.37-22.21,0-31.62l1.35-2.36c5.38-9.42,17.48-30.95,29.93-49.44,4.38-6.4,8.42-12.12,12.45-17.17,6.06-8.41,13.81-18.83,13.81-22.2-.36-13.46,0-45.75,0-55.5H174.24V110.07H276.18v14.12h-8.09c0,9.75.35,42,0,55.5,0,3.37,7.74,13.79,13.79,22.2,3.71,5.05,8.09,10.77,12.13,17.17,12.76,18.49,24.89,40,30.26,49.44l1.35,2.36C331,280.27,331,293.39,325.62,302.48Z"/><path class="cls-9" d="M200.15,208c0-4.71,2.35-8.07,5.37-8.07s5.38,3.36,5.38,8.07c0,4.38-2.35,7.74-5.38,7.74S200.15,212.33,200.15,208Z"/><path class="cls-9" d="M230.09,204.58c0,5.73-3,10.1-6.74,10.1s-6.72-4.37-6.72-10.1c0-5.37,3-10.08,6.72-10.08S230.09,199.21,230.09,204.58Z"/><path class="cls-9" d="M212.25,177c0-8.41,4.38-15.13,9.75-15.13,5.73,0,10.1,6.72,10.1,15.13,0,8.08-4.37,14.8-10.1,14.8C216.63,191.8,212.25,185.08,212.25,177Z"/><path class="cls-9" d="M235.8,208.29c4,0,7.41,4.71,7.41,10.77,0,14.12-14.47,14.12-14.47,0C228.74,213,231.76,208.29,235.8,208.29Z"/><path class="cls-9" d="M236.14,196.86c0-2.7,1.67-5.06,3.71-5.06,1.67,0,3.36,2.36,3.36,5.06,0,3-1.69,5.38-3.36,5.38C237.81,202.24,236.14,199.88,236.14,196.86Z"/><path class="cls-9" d="M237.49,178c0-4.37,2.36-8.07,5.38-8.07s5.38,3.7,5.38,8.07-2.36,8.08-5.38,8.08S237.49,182.39,237.49,178Z"/><path class="cls-9" d="M308.8,273.55a20,20,0,0,1,0,18.5A12.05,12.05,0,0,1,298,298.44H154.73c-4.37,0-8.07-2.36-10.43-6.39a20,20,0,0,1,0-18.5l1-1.34c3-5.4,10.09-18.17,17.5-28.94,2-3,3.69-5.38,5.71-8.07h116c2,2.69,3.71,5,5.72,8.07,7.4,10.77,14.47,23.54,17.5,28.94Z"/><path class="cls-10" d="M325.62,270.86l-1.35-2.36c-5.37-9.42-17.5-30.95-30.26-49.44-4-6.4-8.42-12.12-12.13-17.17-6.05-8.41-13.79-18.83-13.79-22.2.35-13.46,0-45.75,0-55.5h8.09V110.07H174.24v14.12H185c0,9.75-.36,42,0,55.5,0,3.37-7.75,13.79-13.81,22.2-4,5.05-8.07,10.77-12.45,17.17-12.45,18.49-24.55,40-29.93,49.44l-1.35,2.36c-5.37,9.41-5.37,22.53,0,31.62a19.61,19.61,0,0,0,17.83,10.43H307.79c7.4,0,13.8-3.71,17.83-10.43C331,293.39,331,280.27,325.62,270.86Zm-10.08,25.56a8,8,0,0,1-7.75,4.72H145.31a8,8,0,0,1-7.74-4.72c-3.36-5.38-3.36-13.79,0-19.84l1.35-2.36c5.38-9.08,17.16-30.62,29.6-48.78,4-6.05,8.42-11.77,12.11-16.82,10.77-14.8,16.48-22.53,16.15-29.27-.34-12.11-.34-40.36,0-52.47h59.54c0,12.45.35,40.36,0,52.47-.33,6.74,5.4,14.47,16.15,29.27,3.71,5,7.74,10.77,12.1,16.82,12.13,18.16,24.23,39.7,29.28,48.78l1.34,2.36C318.55,282.63,318.9,291,315.54,296.42Z"/><path class="cls-11" d="M200.15,208c0-4.71,2.35-8.07,5.37-8.07s5.38,3.36,5.38,8.07c0,4.38-2.35,7.74-5.38,7.74S200.15,212.33,200.15,208Z"/><path class="cls-11" d="M230.09,204.58c0,5.73-3,10.1-6.74,10.1s-6.72-4.37-6.72-10.1c0-5.37,3-10.08,6.72-10.08S230.09,199.21,230.09,204.58Z"/><path class="cls-11" d="M212.25,177c0-8.41,4.38-15.13,9.75-15.13,5.73,0,10.1,6.72,10.1,15.13,0,8.08-4.37,14.8-10.1,14.8C216.63,191.8,212.25,185.08,212.25,177Z"/><path class="cls-11" d="M235.8,208.29c4,0,7.41,4.71,7.41,10.77,0,14.12-14.47,14.12-14.47,0C228.74,213,231.76,208.29,235.8,208.29Z"/><path class="cls-11" d="M236.14,196.86c0-2.7,1.67-5.06,3.71-5.06,1.67,0,3.36,2.36,3.36,5.06,0,3-1.69,5.38-3.36,5.38C237.81,202.24,236.14,199.88,236.14,196.86Z"/><path class="cls-11" d="M237.49,178c0-4.37,2.36-8.07,5.38-8.07s5.38,3.7,5.38,8.07-2.36,8.08-5.38,8.08S237.49,182.39,237.49,178Z"/><path class="cls-11" d="M308.8,292.05A12.05,12.05,0,0,1,298,298.44H154.73c-4.37,0-8.07-2.36-10.43-6.39a20,20,0,0,1,0-18.5l1-1.34c3-5.4,10.09-18.17,17.5-28.94,2-3,3.69-5.38,5.71-8.07h116c2,2.69,3.71,5,5.72,8.07,7.4,10.77,14.47,23.54,17.5,28.94l1,1.34A20,20,0,0,1,308.8,292.05Z"/><path class="cls-12" d="M248.25,178c0,4.38-2.36,8.08-5.38,8.08s-5.38-3.7-5.38-8.08,2.36-8.07,5.38-8.07S248.25,173.64,248.25,178Z"/><path class="cls-13" d="M232.1,177c0,8.08-4.37,14.8-10.1,14.8-5.37,0-9.75-6.72-9.75-14.8,0-8.41,4.38-15.13,9.75-15.13C227.73,161.87,232.1,168.59,232.1,177Z"/><path class="cls-14" d="M230.09,204.58c0,5.73-3,10.1-6.74,10.1s-6.72-4.37-6.72-10.1c0-5.37,3-10.08,6.72-10.08S230.09,199.21,230.09,204.58Z"/><path class="cls-15" d="M243.21,219.06c0,14.12-14.47,14.12-14.47,0,0-6.06,3-10.77,7.06-10.77S243.21,213,243.21,219.06Z"/><path class="cls-16" d="M210.9,208c0,4.38-2.35,7.74-5.38,7.74s-5.37-3.36-5.37-7.74c0-4.71,2.35-8.07,5.37-8.07S210.9,203.24,210.9,208Z"/><path class="cls-17" d="M308.8,292.05A12.05,12.05,0,0,1,298,298.44H154.73c-4.37,0-8.07-2.36-10.43-6.39a20,20,0,0,1,0-18.5l1-1.34c3-5.4,10.09-18.17,17.5-28.94,2-3,3.69-5.38,5.71-8.07h116c2,2.69,3.71,5,5.72,8.07,7.4,10.77,14.47,23.54,17.5,28.94l1,1.34A20,20,0,0,1,308.8,292.05Z"/><path class="cls-18" d="M243.21,196.86c0,3-1.69,5.38-3.36,5.38-2,0-3.71-2.36-3.71-5.38,0-2.7,1.67-5.06,3.71-5.06C241.52,191.8,243.21,194.16,243.21,196.86Z"/></g></g></g></svg>