<svg xmlns="http://www.w3.org/2000/svg" xmlns:xlink="http://www.w3.org/1999/xlink" viewBox="0 0 422.98 422.98"><defs><style>.cls-1{fill:url(#linear-gradient);}</style><linearGradient id="linear-gradient" x1="212.87" y1="-132.16" x2="210.54" y2="448.62" gradientUnits="userSpaceOnUse"><stop offset="0" stop-color="#61bf89"/><stop offset="0.06" stop-color="#56b189"/><stop offset="0.25" stop-color="#398e87"/><stop offset="0.43" stop-color="#227286"/><stop offset="0.62" stop-color="#125f86"/><stop offset="0.81" stop-color="#085385"/><stop offset="1" stop-color="#054f85"/></linearGradient></defs><title>معدات أخرى</title><g id="Layer_2" data-name="Layer 2"><g id="واجهة_مستهلكات_طبية" data-name="واجهة مستهلكات طبية"><g id="معدات_اخرى" data-name="معدات اخرى"><path class="cls-1" d="M368.12,0H54.87A54.86,54.86,0,0,0,0,54.87V368.12A54.86,54.86,0,0,0,54.87,423H368.12A54.86,54.86,0,0,0,423,368.12V54.87A54.86,54.86,0,0,0,368.12,0ZM336.05,174.19a7.72,7.72,0,0,1-7.71,7.72h-24a82.93,82.93,0,0,1-9.7,55.23L324,258.94a8.17,8.17,0,0,1,0,13.12l-92.37,68.16a8.17,8.17,0,0,1-13-6.56V306.23H107.2A8.16,8.16,0,0,1,99,298.06V232.48a8.19,8.19,0,0,1,8.16-8.16h36.44A83.22,83.22,0,0,1,141.1,176l-38.49-28.58a7.72,7.72,0,0,1,0-12.41L195,66.82A7.71,7.71,0,0,1,207.29,73v27.86h121a7.72,7.72,0,0,1,7.71,7.71ZM222.12,121.33A74.63,74.63,0,1,0,296.74,196,74.71,74.71,0,0,0,222.12,121.33Zm45.33,88.18H236.16V240.8H209.07V209.51H177.78v-27.1h31.29V151.12h27.09v31.29h31.29Z"/></g></g></g></svg>