<svg xmlns="http://www.w3.org/2000/svg" xmlns:xlink="http://www.w3.org/1999/xlink" viewBox="0 0 422.98 422.98"><defs><style>.cls-1{fill:url(#linear-gradient);}.cls-2{fill:url(#linear-gradient-2);}.cls-3{fill:url(#linear-gradient-3);}</style><linearGradient id="linear-gradient" x1="273.92" y1="114.18" x2="274.3" y2="163.35" gradientUnits="userSpaceOnUse"><stop offset="0" stop-color="#61bf89"/><stop offset="0.06" stop-color="#56b189"/><stop offset="0.25" stop-color="#398e87"/><stop offset="0.43" stop-color="#227286"/><stop offset="0.62" stop-color="#125f86"/><stop offset="0.81" stop-color="#085385"/><stop offset="1" stop-color="#054f85"/></linearGradient><linearGradient id="linear-gradient-2" x1="216.82" y1="53.03" x2="231.36" y2="256.11" xlink:href="#linear-gradient"/><linearGradient id="linear-gradient-3" x1="214.97" y1="-58.44" x2="208.68" y2="436.79" gradientUnits="userSpaceOnUse"><stop offset="0" stop-color="#61bf89"/><stop offset="0.01" stop-color="#5fbd89"/><stop offset="0.13" stop-color="#449b88"/><stop offset="0.26" stop-color="#2d8087"/><stop offset="0.4" stop-color="#1b6a86"/><stop offset="0.56" stop-color="#0f5b85"/><stop offset="0.74" stop-color="#075285"/><stop offset="1" stop-color="#054f85"/></linearGradient></defs><title>معدات سنية</title><g id="Layer_2" data-name="Layer 2"><g id="واجهة_مستهلكات_طبية" data-name="واجهة مستهلكات طبية"><g id="معدات_سنية" data-name="معدات سنية"><path class="cls-1" d="M287.07,134.77a14.83,14.83,0,0,1-25.86,14.52,14.83,14.83,0,0,1,12.9-22.09,15,15,0,0,1,4,.55A14.71,14.71,0,0,1,287.07,134.77Z"/><path class="cls-2" d="M257.77,85.85c-10.76,0-21.3,4.68-31.1,9.73a5.88,5.88,0,0,1-5.44,0c-9.79-5-20.34-9.73-31.1-9.73a68.06,68.06,0,0,0-68,68c.27,4.4,10.14,30.25,14.88,42.67,3.55,9.29,5.6,14.66,6.24,16.89l.12.49c.88,4.45,1.69,10.52,2.64,17.54,3.28,24.33,8.23,61.1,22.93,87.55l.1.19a19.43,19.43,0,0,0,4.4-2.14c1.75-2.52,2.93-14,3.79-22.35,3.05-29.7,7.67-74.59,45.89-77.16.26,0,.52,0,.8,0,38.2,2.57,42.82,47.46,45.88,77.16.86,8.39,2,19.83,3.79,22.35a19.23,19.23,0,0,0,4.4,2.14,1.14,1.14,0,0,1,.1-.19c13.88-25,19.62-57.52,24.23-83.63,1.18-6.7,2.29-13,3.46-18.71a5,5,0,0,1,.28-.95c5.71-14.78,19.67-54.75,19.67-61.85A68.06,68.06,0,0,0,257.77,85.85Zm39.79,62.75a24.26,24.26,0,0,1-4.29,8.46,24.59,24.59,0,0,1-7.22,6.17,24.3,24.3,0,1,1,11.51-14.63Z"/><path class="cls-3" d="M368.12,0h-305A63.12,63.12,0,0,0,0,63.12v305A54.86,54.86,0,0,0,54.87,423H368.12A54.86,54.86,0,0,0,423,368.12V54.87A54.86,54.86,0,0,0,368.12,0Zm-50.8,219.47c-1.09,5.43-2.16,11.51-3.29,17.93-4.73,26.78-10.6,60-25.17,86.66a10.13,10.13,0,0,1-5.37,6.17c-4.38,2-9.78.92-16.51-3.36-6.18-3.93-7.23-14.11-9-31-3.48-33.89-8.75-64.47-34.47-66.51-25.74,2-31,32.62-34.49,66.51-1.73,16.86-2.78,27-9,31-4.56,2.9-8.52,4.33-12,4.33a10.65,10.65,0,0,1-4.57-1,10.14,10.14,0,0,1-5.36-6.17c-15.48-28.34-20.57-66-23.94-91-.89-6.69-1.68-12.48-2.48-16.56-.65-2.12-3.17-8.73-5.84-15.72-10.62-27.79-15.67-41.89-15.67-46.9A79.94,79.94,0,0,1,190.13,74c12.21,0,23.44,4.48,33.82,9.67C234.33,78.47,245.56,74,257.77,74a80,80,0,0,1,79.86,79.85C337.63,165.19,319.38,214,317.32,219.47Z"/></g></g></g></svg>